<svg
        xmlns="http://www.w3.org/2000/svg"
        xml:space="preserve"
        viewBox="0 0 472.2 58.9"
        width="500"
        height="62"
        class="max-w-full mx-auto h-10 md:h-auto"
        fill="white"
        aria-hidden="true"
      >
        <path
          d="M24.6 17.5c0-.1.6-1 .5-1.2.7-1.5-.1-2.6-.1-2.6-.3-.4-1.3-2.1-2.4-2.6-.2-.1-.5-.3-.5-.5 0 0-.3 0-.5-.1s-.3-.3-.6-.4c-.4-.3-.8-.6-1.2-.8-.8-.6-1.8-.9-2.7-1.2-1-.3-2.2-.7-3.3-.9-1-.2-2-.2-3-.2-.8 0-2.5.2-2.8.2-.2-.2-.2-.5-.2-.8 0-.5 0-.9-.3-1.3-.6-.7-2.8-.9-2.8-.7 0 .2.3.3.2.4-.2 0 0 .3-.2.3.6.6.1 1.4-.1 2-.1.3 0 .9-.3 1-.2.2-.4.2-.6.2-.5.1-2.4.2-2.3.4 0 0 0 .1-.1.1 0 .1.1.2-.1.2H.9c-.1.3.2.5.4.8.4.7 1.3 1.5 1.9 1.2 0 .1.3.2.4.2-.1.3-.7 2-.7 2.3-.1.3-2.2 9.5-2.2 9.9-.1.6 0 1.2-.3 1.7 0 .5-.3.8 0 1.2.1 0 .2-.3.2-.4.3.2-.2.8-.3.9-.1.5.1.9 0 1.4.2.1.1-.4.2-.3.3 0 0 .3 0 .4.3 0 .2 1.4-.2 1.4-.2 1.7.1 3.6.3 5.4.3 0 .3.5.3.6v.5c.1.3.1.6.1.9 0 .6.1 1.1.3 1.7.2.7.3 2.4 1 2.7.5 0 .6-.4.8-.7.3 0 .3-1 .4-1.3 0-.6.3-1.1.3-1.7.2 0 .1-1.4.2-1.6 0-.9.3-3.2.6-3.6 0-.3.3-.3.3-.6 0-.2 0-.5.2-.6-.1 0-.1 0-.1-.1.2.2.2 0 .3 0 .1-.4 0-.8.3-.9-.3-.1.1-.4-.1-.6 0-.3 0-.3.2-.5 0 .1.5.8.6 1 .4.7.9 1.3 1.4 1.9.6.7 1.1 1.4 1.8 2 .6.5 1.8 1.9 2.6 2.5.7.5 1.5 1.1 2.1 1.4.9.5 1.7.9 2.6 1.1.4.1.9.1 1.4.3.3.1.7.1 1 .1.9 0 1.2 0 1.3-.3-.2-.1-.2-.3 0-.3-.1-.3-.6-.3-.9-.4-.4-.2-1.4-.7-1.5-.7-.6-.2-1-.6-1.4-.8-3.6-2.4-4.8-5.8-7.4-9 .7-.2 1.2-.5 1.9-.7.5-.1.9-.5 1.4-.5.1-.3.7-.4 1-.6.7-.3 1.4-.6 2-1 .2 0 .5-.1.5-.4-.5.3-1 .6-1.6.7-.3.1-.6.5-1 .5-.3.1-.3 0-.4.1-.5.1-.9.4-1.3.6.2-.2.5-.4.8-.4.1-.2.5-.3.7-.5.3-.1.5-.2.7-.3-.3 0-.6.3-.8.2.4-.2.8-.4 1.3-.6h-.2c.3-.2.7-.3.9-.6.3-.1.5-.3.6-.3.2-.2.5-.2.6-.4-.5.2-1.4.9-1.9.7.7-.3 1.4-.6 2-1 .8-.6 1.7-.7 2.4-1.4-.3 0-.3.1-.6.1.2-.2.5-.3.8-.6-.8.2-1.3.8-2 1 .4-.4 1-.7 1.4-1 .3-.2.9-.8 1.3-.6 0-.3 1.1-1.1 1.3-.9 0 0-.1.1 0 .1.4-.4 1.1-.5 1.4-1.1-.3.4-.8.7-1.3.9-.2 0 .2-.3.1-.3.1-.1.3-.2.5-.3.3-.3.6-.9 1-.8 0 .1-.4.1-.3.3.3-.3.6-.6.7-1 .7.5 1.2-.3 1.4-.5zM.3 31.9c-.2 0 0-.2 0-.3.1.2.1.3 0 .3zm-.1-.2c0-.2.2-.3.1-.7-.2 0-.2-.2 0-.3.1.3.1.8-.1 1zm.3-5.9c-.1 0 0-.3 0-.3.1 0 .1.2 0 .3zm.1 8.7c-.1 0 0-.2 0-.2.1 0 .1.2 0 .2zm.1-.9c0-.3-.2-.6-.1-1.1.2.3.1.7.1 1.1zm.1-3.9c-.2 0-.1-.3 0-.4 0 0 .1.3 0 .4zm-.1-4.4c-.4-.2.2-1.7.4-2v-.5c.2 1-.4 1.6-.4 2.5zM5.2 31c-.2 0 0-.2 0-.3.2 0-.1.1 0 .3zm15.5-21c-.4 0-.7-.5-1.2-.6.5-.1.8.4 1.2.6zM7.2 26.3c0-.1.2-.1.3-.1 0 .2-.2.2-.3.1zm.7.6c.3-.1.6-.3.8-.4.1-.4.9-.4 1.5-.5 0-.2.6-.5.9-.4.2-.3.3 0 .5.1-.4.4-1.1.5-1.6.5 0 .1.1.2.2.2-.1 0-.2 0-.3.2-.1-.1-.3-.1-.3 0v.1c-.6 0-1.1.8-1.7.2zm.3-.2c0-.1.1-.1.3-.1 0 0-.2.1-.3.1zm1 1.4c0-.2.2-.1.3-.3.1.2-.2.3-.3.3zm4.1-2.5c-.3.1-.4.3-.6.5h-.3s-.1.1-.1.2c-.5.2-1.2.2-1.7.4v.2c-.2.1-.3.3-.6.3.1 0 .2 0 .3.1l-.2.1h.1c.3-.4.8-.7 1.5-.6-.2.2-.5.3-.8.4 0 0-.1.2-.3.3 0 0-.2-.1-.2 0-.2 0-.4.1-.7.3-.4.1-.7.5-1.2 0 0 0 .1 0 .2-.2-.2 0-.5.1-.5-.1.3-.1.6-.1.9-.3.4-.6 1.4-.6 2-.9.3-.1.4-.3.8-.3.6-.1 1-.3 1.4-.4h.3-.3zm-1-.4c-.2.2-.5.1-.7.3 0-.1.4-.2.7-.3zm-.1-.1c0 .1-.2 0-.3.1-.1 0 .2-.1.3-.1zm.2-.2c0 .1 0 .1 0 0zm.3.6h.2-.2zm.7-.7c-.5 0-.2.1-.4.3 0 0-.2-.2-.3-.1.5-.4 1.2-.6 1.8-.8-.1.3-.5.3-.7.4-.2 0-.2.3-.4.2zm.3.3c.3-.2.6-.3.9-.4-.3.2-.5.3-.9.4zm1-1c0-.1 0-.1.2-.1l-.2.1zm-2.9.9h-.2c-.3.3-1 .3-1.4.6-.4 0-1.1.5-1.5.6-.4.2-.9.6-1.3.4 0-.2.2-.2.4-.2l1-.5c.3 0 .8-.3 1-.3 0 0 1.1-.7 1.1-.4.2 0 .3-.4.6-.3l-.1-.1c.3 0 .3-.4.6-.3.4.1.4-.1.7-.3.1-.2.9-.3 1.1-.4.2 0 .3-.3.6-.3h.6c-.9.8-2.1 1.1-3.2 1.5zm-3.2.8 1.8-.9c.3-.1.6-.3.9-.4.2.1 0 .3.2.1-.3.4-.9.4-1.3.5 0 0-.5.1-.4.1-.6.2-1.2.6-1.8.8.2 0 .4-.2.6-.2zm2.5-1.5c.2-.1.3-.2.4-.2 0 .2-.1.2-.4.2zm-3.6 1.9c.1-.2.4-.1.5-.1-.1 0-.3.1-.5.1zm5.6-2.4c.5-.2 1-.5 1.5-.5-.4.2-.9.3-1.5.5zm1.6-.6h.3c0 .1-.2.1-.3 0zm.5.7s0-.3.3-.3c-.1.3-.2.2-.3.3zm-.1-.4c-.1-.2.4-.3.6-.3-.1.2-.4.1-.6.3zm.8-.4c0-.2.2 0 .2-.1.1.1-.2.1-.2.1zm.6.1c0 .1 0 .2-.2.1-.1-.2.1-.1.2-.1.2 0 .2-.3.4-.2 0 .1-.2.2-.4.2zm.2-.4s.2 0 .2-.1c.1.1 0 .3-.2.1zm.3-.1c0-.1.1 0 .3 0-.1.1-.2.1-.3 0zm4-5.8c-.2.6-1 1.2-1.4 1.6l-1.5 1.2c-.9.6-5.9 3.6-6.5 3.9.2 0 .3-.1.6 0-.3.5-1.1.8-1.6.8.1.2.3-.1.5 0-.4.3-.9.4-1.3.6-.6.3-1.2.5-2 .7-.2.2-.5.5-.9.5.1-.3.1-.5-.1-.6-.1.3-.1.6-.6.5 0-.2.3-1 .3-1.3.2-.9.6-1.6.6-1.7 0-.2.1-.4.1-.7l.3-1.5c-.2.3-.4.8-.5 1.1 0 .2 0 .5-.3.6.5-.9 1.4-8.8 1.3-9 0-.6.2-1.5.3-2 .8 0 1.5-.2 2.3-.3.9-.1 2.1 0 2.8.1 1.4.3 2 .3 3.3.7 1.2.4 3.2 1 4 2.1.4.7.6 1.7.3 2.7zm-.2-6.8c.2-.1.5.1.5.4-.2-.1-.3-.3-.5-.4zm3.1 7.1c-.3 0-.2.4-.5.4 0-.2.2-.2.2-.2-.3 0 .4-.6.6-.8l-.1.4c-.1-.1-.1.1-.2.2zm37.3 18.4c0 .4-.2.5-.3.5-.8.3-1.3-.3-1.4-.9-.2-.5-.3-1-.3-1.7 0-.6.1-1.4.3-2 .3-.6.3-1.5.4-2.3.2-.3.3-.6.5-1 .3-.9.7-2.1.8-2.9.2-1.4-.3-1.8-1.3-2.2h-.3c-.3 0-.5-.2-.7-.1-.1 0-.3.1-.5.2-.1-.1 0-.1-.2-.1-.1 0-.3.1-.5.2-.4 0-.6 0-.8.2-.5.4-1 .9-1.5 1.4-.6.6-1 1.2-1.5 1.7.1-.6.2-1.1.4-1.7.1-.6.6-1.6.1-2.2-.3-.4-.4-.3-.9-.4-.3 0-.4-.2-.6-.3-.6-.2-1.1 0-1.8.3-1.9.7-3.8 2.2-5.1 3.8 0 .1-.2.2-.3.3-.6.7-.1.3-.9.9.5-1.7.7-2.1 1.2-3.8 0-.3.1-.7.2-.9-.1-.2-.5-.4-.9-.6-.4-.1-.9-.5-1.1-.2 0-.2-.3-.3-.5-.4 0 0-.1.1-.2 0-.1 0-.1-.2-.3-.1 0-.1 0 0-.2.1-.3 0-.4.2-.6.3h-.3v.1c-.2 0-.3-.1-.3 0-.2.4-.2.9-.5 1.2-.2.4-1.3 3.3-2.1 5.8-.3.2-.6.4-.8.5s-.3.1-.5.3c-1.5 1-3.7 2.1-5.8 2.6-.9.2-2.2.4-3.1.4-.2-.1-.8-.3-.9-.3-1.5-.2-1.2-1.9-.9-2.3.4 0 .6-.3.9-.5 0-.1.3 0 .4-.1.4-.2.7-.6.9-.7.1-.1.4-.2.5-.3 0 0 1.1-.6 1.2-.8.5-.4 1.2-.7 1.6-1.1 0-.2.5-.4.5-.6.3-.4.7-.6 1.1-1.1.1-.4.5-.6.3-1.4 0-.1-.2-.2-.3-.3-.1-.5-1.4-1.2-2.1-1.5-.2 0-.3.2-.3 0-.2 0-.2-.4-.5-.4-.8-.2-1.8-.4-2.7.3-.4.3-.6.5-1.1.6-.4.4-.8.6-1 .9-.6.7-1.3 1.3-1.5 1.8-.2.2-.3.4-.3.6-.1.1-.3.3-.5.4 0 .2 0 .4-.1.7-.2.5-1.2 2.3-.5 2.9.4.6.3.6.1.6.2.3-.3.7-.1 1.2 0 .1.1.4.3.5h.4c.5.3.8 1.5 1.4 1.7.1 0 1.4.6 1.5.6.5.2 1 .1 1.5.3.2 0 .3 0 .5.1.5.1 1 .1 1.3 0 .7 0 1.4-.2 2-.4.3 0 .7 0 1-.2.5-.1.9-.4 1.2-.3.3-.4.6-.3 1-.6.3-.3.9-.5 1.3-.6.6-.4.5-.6 1.1-.9.1-.1.5-.4.7-.5-.2.8-.3 1.4-.2 1.6.1.1-.1.3-.1.6l.6.6c.4.2.6.4 1.2.3 0 .1.3.2.3.2 0-.1.1-.2.3-.2.2-.2.3.2.3.1h.2c.1 0 .6-.3.7-.2.3-.5.3-.6.6-.7.2-.1.8-1 .9-1.2.7-1 .9-1 1.7-2.2.7-.6 1.4-1.4 2-2.2 0-.2.6-.5.8-.6.1 0 .3-.2.4-.5 0-.1.1-.3.2-.3l.2-.2c.5-.3.9-.9 1.3-1.3h.2v-.2h.3c.1 0 0-.1.1-.3.4.2.3-.3.7-.2-.4 1-.7 2-1.2 3.1-.4 1-.9 2-1.2 2.9-.2.4-.4 1-.4 1.4-.1.5.2.7.2 1.2 0 0 .3.1.3.3.3.3.8.9 1 1 .2 0 .5-.3.8-.1.2 0 .4 0 .4-.3 1.6-.9 2.6-2.8 3.8-4.2 0 .5-.2.9-.3 1.4V32c0 .8 0 1.4.2 2.1 0 .1.2.3.2.4v.3s.3.2.3.3c-.1.5 0 .6.5 1 .4.7.8 1 1.5 1.2.3.1.6.4.8.4.1.1.3 0 .5 0 .4.2.8.3 1.1.2.1 0 .1 0 .1-.1.2-.2.5-.2.7-.2 0-.2-.1 0-.1-.3 0 0 .4 0 .6-.2.1-.1.1-.3.1-.4l.1-.1c.1-.1.4-.3.4-.3.2-.2 0-.6-.1-.7-.2-.1-.5.3-.7 0zM31.9 24.3s0-.1.3 0c0 0 .1.3 0 .6s-.6.7-.9.9c-.9.6-1.8 1.5-2.7 2 0 0-.2.1-.2-.1.9-1.2 2.1-2.7 3.5-3.4zM102 35.6c0 .4-.2.5-.3.5-.8.3-1.3-.3-1.4-.9-.2-.5-.3-1-.3-1.7 0-.6.1-1.4.3-2 .3-.6.3-1.5.4-2.3.2-.3.3-.6.5-1 .3-.9.7-2.1.8-2.9.2-1.4-.3-1.8-1.3-2.2h-.3c-.3 0-.5-.2-.7-.1-.1 0-.3.1-.5.2-.1-.1 0-.1-.2-.1-.1 0-.3.1-.5.2-.4 0-.6 0-.8.2-.5.4-1 .9-1.5 1.4-.6.6-1 1.2-1.5 1.7.1-.6.2-1.1.4-1.7.1-.6.6-1.6.1-2.2-.3-.4-.4-.3-.9-.4-.3 0-.4-.2-.6-.3-.6-.2-1.1 0-1.8.3-1.9.7-3.8 2.2-5.1 3.8 0 .1-.2.2-.3.3-.6.7-.1.3-.9.9.5-1.7.7-2.1 1.2-3.8 0-.3.1-.7.2-.9-.1-.2-.5-.4-.9-.6-.1 0-.5-.4-.8 0 0-.2-.3-.3-.5-.4 0 0-.1.1-.2 0-.1 0-.1-.2-.3-.1 0-.1 0 0-.2.1-.3 0-.4.2-.6.3h-.3v.1c-.2 0-.3-.1-.3 0-.2.4-.2.9-.5 1.2-.2.4-1.3 3.3-2.1 5.8-.3.2-.6.4-.8.5-.2.1-.3.1-.5.3-1.5 1-3.7 2.1-5.8 2.6-.9.2-2.2.4-3.1.4-.2-.1-.8-.3-.9-.3-1.5-.2-1.2-1.9-.9-2.3.4 0 .6-.3.9-.5 0-.1.3 0 .4-.1.4-.2.7-.6.9-.7.1-.1.4-.2.5-.3 0 0 1.1-.6 1.2-.8.5-.4 1.2-.7 1.6-1.1 0-.2.5-.4.5-.6.3-.4.7-.6 1.1-1.1.1-.4.5-.6.3-1.4 0-.1-.2-.2-.3-.3-.1-.5-1.4-1.2-2.1-1.5-.2 0-.3.2-.3 0-.2 0-.2-.4-.5-.4-.8-.2-1.8-.4-2.7.3-.4.3-.6.5-1.1.6-.4.4-.8.6-1 .9-.6.7-1.3 1.3-1.5 1.8-.2.2-.3.4-.3.6-.1.1-.3.3-.5.4 0 .2 0 .4-.1.7-.2.5-1.2 2.3-.5 2.9.1.4-.1.4-.2.4.2.3-.3.7-.1 1.2 0 .1.1.4.3.5h.4c.5.3.8 1.5 1.4 1.7.1 0 1.4.6 1.5.6.5.2 1 .1 1.5.3.2 0 .3 0 .5.1.5.1 1 .1 1.3 0 .7 0 1.4-.2 2-.4.3 0 .7 0 1-.2.5-.1.9-.4 1.2-.3.3-.4.6-.3 1-.6.3-.3.9-.5 1.3-.6.6-.4.5-.6 1.1-.9.1-.1.5-.4.7-.5-.2.8-.3 1.4-.2 1.6.1.1-.1.3-.1.6l.6.6c.4.2.6.4 1.2.3 0 .1.3.2.3.2 0-.1.1-.2.3-.2.2-.2.3.2.3.1h.2c.1 0 .6-.3.7-.2.3-.5.3-.6.6-.7.2-.1.8-1 .9-1.2.7-1 .9-1 1.7-2.2.7-.6 1.4-1.4 2-2.2 0-.2.6-.5.8-.6.1 0 .3-.2.4-.5 0-.1.1-.3.2-.3l.2-.2c.5-.3.9-.9 1.3-1.3h.2v-.2h.3c.1 0 0-.1.1-.3.4.2.3-.3.7-.2-.4 1-.7 2-1.2 3.1-.4 1-.9 2-1.2 2.9-.2.4-.4 1-.4 1.4-.1.5.2.7.2 1.2 0 0 .3.1.3.3.3.3.8.9 1 1 .2 0 .5-.3.8-.1.2 0 .4 0 .4-.3 1.6-.9 2.6-2.8 3.8-4.2 0 .5-.2.9-.3 1.4V32c0 .8 0 1.4.2 2.1 0 .1.2.3.2.4v.3s.3.2.3.3c-.1.5 0 .6.5 1 .4.7.8 1 1.5 1.2.3.1.6.4.8.4.1.1.3 0 .5 0 .4.2.8.3 1.1.2.1 0 .1 0 .1-.1.2-.2.5-.2.7-.2 0-.2-.1 0-.1-.3 0 0 .4 0 .6-.2.1-.1.1-.3.1-.4l.1-.1c.1-.1.4-.3.4-.3.2-.2 0-.6-.1-.7-.3-.1-.5.3-.7 0zM72.7 24.3s0-.1.3 0c0 0 .1.3 0 .6s-.6.7-.9.9c-.9.6-1.8 1.5-2.7 2 0 0-.2.1-.2-.1.9-1.2 2.1-2.7 3.5-3.4zm56.5-16c0-.3.3-.4.1-.6 0 .2-.3.4-.1.6zm-.2.1s.2-.1.1-.1c-.1.1-.3.1-.1.1zm-20.8 25.8z"
          class="st0"
        ></path>
        <path
          d="M155.2 38.9c-.1-.1-.4 0-.6-.2v-.1c-.3-.3-.4-1-.5-1.5-.2-1.5.2-2.9.5-4.1.1-.7.2-1.3.4-1.8 0 0 .3-.2.3-.3.3-.6.5-1.5.7-2.2.3-.3.5-.8.8-1.2-.3-.2-.6-.3-.5-.9-.2-.1-.3-.2-.4-.3-.3-.4-.3-.6-.6-.7 0 0 0-.2-.1-.2-.1-.1-.3-.2-.4-.2-.2-.2-.5-.3-.7-.5-.5-.2-1.2 0-1.5-.6.5-.9 1-1.7 1.3-2.6.5-1.4.9-2.6.8-4.6 0 0-.1-.1-.1-.3-.4-.5-1.1-.8-1.6-1.3-.1-.2-.2-.1-.2-.1-.2.2-.4.2-.5.3-.4.3-1.3 1.2-1.5 1.5-.4.4-.7.7-.8 1 0 0-.2.1-.2.2v.2s-.2-.1-.3 0v.3s-.2 0-.3.1c-.2.4-.4.9-.5 1.2-.2.5-.6 2.1-.5 2.9l.3.3c.2.7 0 .2.3.6.2.2.4.3.6.5-.3.5-.3.5-.7 1.1-.6.7-.7.8-1 1.1-.5.5-.5.5-1.1 1.2-.3.4-1.1.9-1.8 1.5-.1 0-.1.1-.2.2-1.5 1-3.7 2.1-5.8 2.6-.9.2-2.2.4-3.1.4-.2-.1-.8-.3-.9-.3-1.5-.2-1.2-1.9-.9-2.3.4 0 .6-.3.9-.5 0-.1.3 0 .4-.1.4-.2.7-.6.9-.7.1-.1.4-.2.5-.3 0 0 1.1-.6 1.2-.8.5-.4 1.2-.7 1.6-1.1 0-.2.5-.4.5-.6.3-.4.7-.6 1.1-1.1.1-.4.5-.6.3-1.4 0-.1-.2-.2-.3-.3-.1-.5-1.4-1.2-2.1-1.5-.2 0-.3.2-.3 0-.2 0-.2-.4-.5-.4-.8-.2-1.8-.4-2.7.3-.4.3-.6.5-1.1.6-.4.4-.8.6-1 .9-.6.7-1.3 1.3-1.5 1.8-.2.2-.3.4-.3.6-.1.1-.3.3-.5.4 0 .2 0 .4-.1.7-.1.3-.6 1.2-.7 1.9-1.2.5-2.2.7-3 .7-1.4 0-2.5-.2-3-.5-.3-.2.2-2.2 0-2.4-.1-.1-.4-.9-.4-.9 0-.3 0-.6-.1-.8 0 .2-.1 0-.1 0 0 .1 0 .2-.1.2-.3 0-.2-.4-.2-.6 0-.3-.2-.5-.2-.8l-.3-.2c-.3 0-.3-.2-.6-.3h-.1c-.1-.3-1.1-.6-1.4-.8-.5-.2-.9-.3-1.2-.4-.3-.1-.8-.1-1.1-.1 0 0 0 .2 0 0h-.3c0 .2.2 0 .1.2h-.3c-.1.2-.6.1-.8.3-.2 0-.4.3-.6 0-.5.6-.6 1.3-.6 2s.2 1.4.6 2c.5.6 1 1.4 1.7 1.8.2.1.6.3.9.4.2.1.6.1.6.4-.3 1.5-1.3 2.6-2.1 3.9-.9 1.4-2 3.1-3.7 3.7 0-.2.1-.2.1-.4-.6-.9-.8-2.1-.8-3.2 0-.3-.1-.5-.1-.7 0-.3.1-.4.1-.7v-1c0-.1 0-.1.2-.2l-.1-.1c0-.2.1-.3.1-.4.1-.3.1-.4.2-.6 0-.2.1-.5.1-.7.1-.2.2-.4.2-.6-.1-.2 0-.3.1-.4 0-.2.3-.5.3-.6 0-.4 0-.8.2-1.1 0-.2.1-.3.1-.4v-.3c.1-.1.2-.1.3-.1v-.3c.1-.6.2-1.2.4-1.7.2-.4.2-.7.2-1 0-.5.3-.3.3-.8.3-.4.5-.7 1.2-1.2.5-.3.7-.9 1.1-1.1 0-.1.5-.2.5-.2.4-.4.9-1 1.4-1.4.3-.1.8-.5.9-.8.1-.2.6-.3.5-.6h.1c.1-.3.4-.3.5-.5.2-.2.2-.4.6-.4 0 0-.2 0-.1.1s.7-.6.9-.6c0-.1.4-.5.4-.5.1-.1.3-.4.3-.5.1-.2.3-.4.5-.5.1-.2.5-.3.6-.5.2-.2.3-.4.6-.4-.1.2-.6.7-.7.9-.3.1-.3.4-.4.4-.2.2-.2.4-.4.6.3-.2.4-.5.7-.7.3-.2.6-.5.8-.8.3-.4.5-.7.8-.9.6-.7 1.3-1.4 1.7-2.2.1-.3.3-.5.5-.7-.2-.1-.1-.2 0-.3.2-.1.3-.7.5-.7 0-.1.1-.1.1-.2v.4c.2-.4.4-.9.6-1.4.1-.1.1-.3.3-.5 0-.1-.1-.5 0-.5.3-.1.3-.9.4-1.1.1-.3.5-1.2.2-1.4 0-.4-.2-.6-.4-1-.3 0-.4-.2-.5-.3-.1 0-.3.1-.2-.1-.3 0-.5 0-.8-.2-.1-.1-.4-.1-.5-.2V.6c-.2.1-.2-.3-.4-.2-.1 0-.1-.1-.1-.1-.1 0-.6.1-.6-.2-.4-.1-.8-.1-1.2 0-.3 0-.6.2-.9.3-.1.1-.1.3-.2.3h-.2c-.3 0-.4.4-.8.3 0 0-.2 0-.2.1-.3.1-.4 0-.6 0-.1.2-.3.3-.2.5-.5.5-.9 1-1.3 1.5-.4 0-.6.6-.8.8-.3.2-.6.5-.7.8-.1.2-.5.3-.6.5v.2c0 .2-.3.3-.4.3 0 .2-.1.3-.3.3-.1.1-.4.4-.4.5 0 .3-.5.8-.6 1.1-.8 1.1-1.5 2.1-2.1 3.2-.4.7-.9 1.3-1.3 2-.4.6-.8 1.4-1 2.1-.2.4-.4.8-.6 1.1-.2.4-.3.7-.4 1 .3 0-.4 1.2-.4 1.3-.2.3-.3.6-.4 1.2h-.1v.3c-.1 0-.2.1-.2.2-.2.3-.3.5-.4.7s0 .5-.2.7c.1.2 0 .4-.2.5v-.1c0 .1-.3.3-.3.6s0 .5-.3.6c-.4.1-.5.6-.5.8-.2 0-.3.9-.5.9-.3.5-.3.5-.6.9-.5.5-.3.7-.9 1.3-.6.8-.4.8-1.1 1.5-.6.6-1.6 1.4-1.8 1.7 0 .3.3.3.6.4.2 0 .7.1 1.2-.1s.4-.1.8-.3l.5-.3c0 .4.1 1.4 0 1.8 0 .1-.2.6.1.5.1.5 0 1 .1 1.5 0 0 .3.9.2 1 .1.4.3.9.4 1.2.2 0 .4.4.2.6.2.1.6.6.6.9.1.3.5.5.5.8-.3-.1-.3-.4-.5-.5 0 .1 0 .2-.1.1 0 .2.4.3.5.4h.1c.3 0 .4.4.7.5.3.1.9.3 1.1.3.3.2.7 0 .9.2.3 0 .7.1 1.1.1.5 0 .9-.1 1.3-.3.3 0 .6-.2.9-.2s.8-.4 1-.5c.4-.2.8-.4 1.2-.8.4-.4 1-.9 1.4-1.3 0-.5.8-.9 1.1-1.2.5-.4.9-1.1 1.2-1.5.1-.2.2-.3.2-.5.1-.4 0 0 .2-.3.1-.2 0-.3.2-.4.4-.3.7-1.5.9-1.5.7.2 2.2.7 2.3.5.3 0 .6.2 1 .2s.6-.1 1.1-.1c.4 0 1.6-.2 1.9-.5.1 0 .2-.1.3-.1-.1.3-.2.6-.1.9 0 .1.1.4.3.5h.4c.5.3.8 1.5 1.4 1.7.1 0 1.4.6 1.5.6.5.2 1 .1 1.5.3.2 0 .3 0 .5.1.5.1 1 .1 1.3 0 .7 0 1.4-.2 2-.4.3 0 .7 0 1-.2.5-.1.9-.4 1.2-.3.3-.4.6-.3 1-.6.3-.3.9-.5 1.3-.6.6-.4.5-.6 1.1-.9.2-.1.8-.6.9-.6.1 0 .5-.6.7-.6 0-.1.5-.4.6-.5 0-.1.1-.1.2-.2.5-.3.8-.5 1.3-1 .4-.4.8-.4 1-1.1 0-.1.8-.6.9-.7.6-.8.4-.5 1-1.4.3-.2.3.3.8.3.3.3.8.3.9.7-.8 1.7-1.6 4.9-1.6 7.7 0 .9 0 1.7.3 2.4 0 .3.2.5.3.8.1.2.3 1 .5 1.2.6 1 2.2 1.6 3.8 1.4.5-.1 1.1-.4 1.5-.8-.6 0-1.1.3-1.7.2-.5-.5-.3-.5-.5-.7zm-17.3-14.6s0-.1.3 0c0 0 .1.3 0 .6s-.6.7-.9.9c-.9.6-1.8 1.5-2.7 2 0 0-.2.1-.2-.1 1-1.2 2.1-2.7 3.5-3.4zM117 15.9c0-.3.3-.6.4-.8 0-.1.1-.3.3-.3.1-.3.1-.6.2-.9.2-.5.4-.8.6-1.3.4-.7.8-1.4 1-2s.5-1.1 1-1.5c.2-.2.2-.5.4-.7.1-.3.3-.5.5-.8 0-.1.7-1 .6-1 .6-.4.8-.9 1.2-1.4.3-.2.6-.6.9-.9.3-.3.9-.8 1.4-1 .4-.3 1-.6 1.5-.8.3.6.7.6.7 1.4-.1.3-.2.9-.5 1.2 0 .2-.3.2-.3.3-.1.1-.2.3-.2.3-.1.3-.3.6-.5.8-.8 1.5-1.7 2.6-2.7 3.9-1.9 2.2-3.6 4.3-5.8 6.3-.3.2-1.2.9-1.5 1 .2-.4.5-1.3.8-1.8.2-.1 0 0 0 0zm2.8 11.8c-.6.6-3.1-2.4-1.6-3.5.3-.2 1.2.4 1.3.6.4.5.9 1.8.3 2.9zm32.4-7.7c-.3.9-.9 1.7-1.4 2.8-.3-1.4 1-2.1 1.2-3.2.1-.1.3 0 .3-.2.2.1 0 .4-.1.6zm12.1.8c.5.6.6.8 1.2.9.2 0 .3.1.6.1.3-.5.7-1.1.7-1.8-1.3-.4-3.1-1.3-3.1.3 0 0 .3.2.6.5zm21.1 1.2c-.5-.1-.9.1-1.4 0-.3 0-.6-.2-.8-.1-.3.1-.4.4-.7.7-.2.1-.3.1-.5.2v.3c-.2.1-.5.2-.6.5-.2.1-.4.1-.5.2-1 .9-1.9 1.9-2.6 2.6 0 .1 0 .2-.1.2h-.2v.2c-.2.2-.3.2-.5.3-.1.1-.1.4-.3.3.3-1.1.3-2.4.5-3.5.3-.5.3-.9.3-1.2l-.1-.3c-.2-.3-2.2-.8-2.7-.6-.4.1-.1.6-.1 1-.2 0-.3.1-.4.2-.4 1.4-.6 2.6-1 3.8-.1.4-.2.8-.3 1.3-.2.1-.4.2-.5.3-.3.3-.7.4-.9.5 0 0 0 .3-.1.3-.5.3-.9.6-1.2.6-.3.2-.6.3-.8.4-.3.3-.6.5-1.1.7-1 .6-2.6 1.3-3.4 1.9-.9.6-1.9.8-3.1 1-.2-.9.6-1.9.8-2.6.1-.1.1-.3.1-.6.1-.3.4-.5.5-.9.1-.1.2-.4.2-.5 0-.2 0-.3.2-.5.3-.8.3-1.6.5-2.2.3-.4.6-.7.6-1.2-.7-.6-2.1-1.4-3.2-.8-.6.7-1.2 2-1.4 2.8 0 .3-.3.4-.2.5-.3.6-.3 1.2-.5 1.8-.2.8-.4 1.5-.4 2.2 0 1 .3 2 .8 2.5.4.4 1.1.7 1.9 1 .8.3 1.4.5 2 .5s1.1-.1 1.8-.3c.4-.2.4-.3.6-.3.4-.1.7-.2.9-.2 0 0 .3-.3.4-.5.2-.1.3-.2.5-.2.7-.4 1.2-.7 1.6-1 .6-.4 1-.6 1.5-1s1-.7 1.4-1.1c0 .3-.1.7-.1 1 0 .8.2 1.5.6 2 .6.1 1.2.1 1.5.4-.3-.6.6-.3.6-.6.1-.3.6-.4.8-.6.1-.2.3-.5.5-.8.1-.3.3-.4.4-.5.1-.2.3-.5.4-.8.4-.3.6-.8 1-1.2.4-.6.7-1.1 1.2-1.6 0-.2.2-.2.3-.3.2-.3.2-.5.3-.6.2-.3.5-.4.6-.8.1.8-.4 1.6-.6 2.5-.4 1.5-.5 3.1-.4 4.7 0 .4 0 .8.1 1.1.2.7.7 1.2.6 1.7.3.3.8 1 1.5 1.4.6.3 1.6.7 2.3.6.1-.1.1-.2.3-.3h.4c.3-.2.3-.6.3-.9-.9.3-1.7-.6-1.9-1-.3-.6-.2-1.2 0-1.7v-.8c.2-.9.5-1.6.8-2.5.1-.4.3-.8.4-1.2.3-.9.4-1.8.6-2.6.1-.3.3-.8.5-1.1.1-.6.2-1.2.2-1.9s0-1.4-.1-2c-.4-.4-.4-.7-.6-.8zm28.7 7.1c-.6.4-.6.4-1.4.9-.7.4-1.5.5-2 1.1 0 0-1.4.6-1.6.8-.3.2-2.6 1.5-2.9 1.6-.2.2.3-.4 0-.5-.2-.7.2-1.7.1-2.3 0-.6.1-.6.2-1.2 0-.4.2-.8.2-1.3 0-.2-.2-.4-.1-.6-.9-.6-1.7-1.1-2.9-1.4-.3-.8-.9-1.5-1.4-1.8-.3 0-.4-.2-.7-.5-1-.5-2.2-.7-3.5-1-.3 0-.3.3-.4.3 0 0-.3 0-.4.1-.3.1-.4.4-.8.7-.1 0-.3 0-.5.1-.6.3-1.2.6-1.7 1-.6.3-1.1.7-1.5 1-.3.2-.8.7-1.1.9 0 0-.3.1-.3.3-.1-.1 0 0 0 .1h-.2c-.4.5-.6.6-.8.9l-.4.4c-1.1.6-3 2.3-3.3 3.4-.1.5.1 1.3.2 1.4.3.4.5.8.7 1.1.1.2.3.5.3.6.7.7 1.4.7 2.3.6.1-.1 1.1-.4 1.2-.5.1 0 .1 0 .3-.1 0-.2.3-.3.5-.3.2-.1.3-.1.5-.2.1-.1.3-.4.6-.5 0 0 .1.1.2 0s.3-.3.5-.3c.8-.5 1.8-1 2.7-1.5 1.8-1 3.8-2.2 5.3-2.9.3.4 1.1.5 1.4 1-.4 2.1-.6 2.6-1 5.1-1.8 2-3.8 4.6-4.6 7.6-.3.6-.7 1.1-.9 1.5-.1.1-.1.4-.3.6-.1.3-.4.7-.4 1 0 .1-.2.2-.2.3-.2.3-.2.4-.3.7-.4 1.3-1 2.6-1.5 4.1-.3 1-.4 2-.6 3.2-.1.6-.3 1.1-.4 1.5 0 .3.1.3.1.5.2.7 0 1.3-.1 1.7.9 0 2 .4 2.9.8.4.1.2-.3.4-.3.1-.1.5.1.6 0 .2 0 .6-.4 1-.7.1-.1.2 0 .3 0 .4-.1.8-.6.9-.6.2-.3.3-.5.3-.7.2-.3.4-.4.4-.6.2-.1.3-.3.4-.7 0-.1.1-.2.1-.2.1-.2.1-.3.3-.4 0-.1.1-.2.2-.3.1-.2.1-.2.1-.3.4-.8.8-1.5 1.1-2.3.3-1 .8-2 1.2-3.1.2-.4.3-.9.4-1.3.3-.6.3-1.2.6-1.7.3-.8.5-1.6.7-2.3.3-.7.9-4.3 1.3-5 .5-.8-.6 1 1-1.6.1-.3.3-.6.4-.7.4-.3 1-.9 1-.9.1-.2.8-.8.9-.9.4-.3.6-.5 1.2-.8.8-.6 1.2-.8 1.2-.9.4-.4 1-.7 1.5-1.2.3-.3.3-.3.9-.6.4-.3.7-.5 1.1-.8.3-.3 1.4-.7.8-1.6-.7-.2-1.9.3-2.3.5zm-13.5-1c-2.7 1-5.3 2.2-8 3.2-.9.3-1.7 1-2.8 1 .3-.6.5-1.2 1.1-1.7.3-.5.7-.9 1.3-1.5.5-.4.8-1 1.2-1.4.3-.1.5-.3.6-.5.2-.1.4-.1.6-.3.1-.1.1-.3.2-.3.2 0 .5-.3.8-.3.3-.2.5-.4.8-.5l.3-.3c.2-.2.3-.1.5-.3.2 0 .3-.1.4-.2 0 0 .6-.3.9-.3.1 0 .5.3 1.1.1-.1.4.3.5.5.9 0 .1 0 .2.1.3.1.2.3.4.4.6.1.2 0 .3 0 .3-.1.4.1.7 0 1.2zm-2.7 24c-.2.5-.3 1.2-.9 1.3 0-.6.2-1.3.4-1.7.2-.6.4-1.2.6-1.9.1-.1.4-.3.6-.5v-.5c.3-.4.8-1.1 1-1.8 0 1.8-.7 3.7-1.7 5.1zm63.8-40.5c-1.3-.6-2.7-1.2-4-1.6-1.4-.5-2.6-.7-4.1-.9-1.4 0-2.4-.5-3.9-.6-.3 0-1.1-.2-1.4-.3 0-1-.2-1.1-1.1-1.3-.5-.6-1.2-.5-1.7-.7-.9-.4-.7.8-1 1.4-.2.4-.3.4-.3.9h-.8c-.2.1-.4.1-.7 0-.6 0-1.1.1-1.7.1-.5-.1-1.1-.4-1.6-.3-1.2.2-2.3.1-3.5.2-1.1.2-2.1.4-3.2.5-.4 0-.8-.2-1.1-.5-.2-.4-.7-.4-1 0-.4.3-.2.8 0 1.2l.5 1.3c1.1 1.6 2.4 3.2 4.3 3.8.7.3 1.4.4 2 .4.9 0 1.9-.2 2.9-.1h.1c.5-.3 1.1-.4 1.6-.6.2.2 0 .5-.2 1.1-.3.7-.6 3.8-.8 4.6l-.1 1.9c-.3 1.3-.4 2.6-.4 3.9 0 .8-.2 1.2-.4 2-.2.7-.5 4.1-.3 4.6.1.6-.1 1.2 0 1.7 0 .4.1 1.1.3 1.5.2.3-.1.8.1 1.2.2.4 0 .8.1 1.3.2.6.6 1.8 1.1 2 .3.2.5 0 .8-.2.3-.4.4-.2.5-.9.1-.5.6-1 .6-1.7.2-.5.3-1.2.4-1.8.1-.5.5-1.1.5-1.7 0-.3.3-1.5.1-1.5 0 0 0 .3-.1.3-.2.2-.1.8-.4 1 .1-.7-.1-1.8.4-2.4.1.2-.1.5.1.6.2-1 .6-2 .8-3.1.1-1.1.3-2.2.5-3.3.2-1.2.3-2.3.6-3.4.3-.9.6-1.7.6-2.7.6-.2.9-2 .9-2.6.1-.2.3-1.2-.1-1-.1 0-.2.5-.4.5.1-.8.3-1.5.6-2.3 0-.2.2-.5.3-.8h.1c.8-.2 1.6-.1 2.4-.3.6 0 1.2-.3 1.8-.5 1.5-.3 2.8-.8 4.4-.9.7.2 4.9.8 4.9 0z"
          class="st0"
        ></path>
        <path
          d="M246 26.1c0 .6-.5 1.7-.2 2.1.3-.9.3-1.6.4-2.6.1-.4.5-1.5.3-2-.4.8-.4 1.8-.5 2.5zm14.6-5.9c0 .1.3.3.6.6.5.6.6.8 1.2.9.2 0 .3.1.6.1.3-.5.7-1.1.7-1.8-1.3-.5-3.1-1.4-3.1.2zm31.5 15.4c0 .4-.2.5-.3.5-.8.3-1.3-.3-1.4-.9-.2-.5-.3-1-.3-1.7 0-.6.1-1.4.3-2 .3-.6.3-1.5.4-2.3.2-.3.3-.6.5-1 .3-.9.7-2.1.8-2.9.2-1.4-.3-1.8-1.3-2.2h-.3c-.3 0-.5-.2-.7-.1-.1 0-.3.1-.5.2-.1-.1 0-.1-.2-.1-.1 0-.3.1-.5.2-.4 0-.6 0-.8.2-.5.4-1 .9-1.5 1.4-.6.6-1 1.2-1.5 1.7.1-.6.2-1.1.4-1.7.1-.6.6-1.6.1-2.2-.3-.4-.4-.3-.9-.4-.3 0-.4-.2-.6-.3-.6-.2-1.1 0-1.8.3-1.9.7-3.8 2.2-5.1 3.8 0 .1-.2.2-.3.3-.6.7-.1.3-.9.9.5-1.7.7-2.1 1.2-3.8 0-.3.1-.7.2-.9-.1-.2-.5-.4-.9-.6-.4-.1-.9-.5-1.1-.2 0-.2-.3-.3-.5-.4 0 0-.1.1-.2 0-.1 0-.1-.2-.3-.1 0-.1 0 0-.2.1-.3 0-.4.2-.6.3h-.3v.1c-.2 0-.3-.1-.3 0-.2.4-.2.9-.5 1.2-.1.3-1 2.5-1.7 4.7-.4.2-.8.4-.9.5-.3.3-.7.4-.9.5 0 0 0 .3-.1.3-.5.3-.9.6-1.2.6-.3.2-.6.3-.8.4-.3.3-.6.5-1.1.7-1 .6-2.6 1.3-3.4 1.9-.9.6-1.9.8-3.1 1-.2-.9.6-1.9.8-2.6.1-.1.1-.3.1-.6.1-.3.4-.5.5-.9.1-.1.2-.4.2-.5 0-.2 0-.3.2-.5.3-.8.3-1.6.5-2.2.3-.4.6-.7.6-1.2-.7-.6-2.1-1.4-3.2-.8-.6.7-1.2 2-1.4 2.8 0 .3-.3.4-.2.5-.3.6-.3 1.2-.5 1.8-.2.8-.4 1.5-.4 2.2 0 1 .3 2 .8 2.5.4.4 1.1.7 1.9 1s1.4.5 2 .5 1.1-.1 1.8-.3c.4-.2.4-.3.6-.3.4-.1.7-.2.9-.2 0 0 .3-.3.4-.5.2-.1.3-.2.5-.2.7-.4 1.2-.7 1.6-1 .6-.4 1-.6 1.5-1s1-.7 1.4-1.1c-.2.9-.3 1.5-.2 1.7.1.1-.1.3-.1.6l.6.6c.4.2.6.4 1.2.3 0 .1.3.2.3.2 0-.1.1-.2.3-.2.2-.2.3.2.3.1h.2c.1 0 .6-.3.7-.2.3-.5.3-.6.6-.7.2-.1.8-1 .9-1.2.7-1 .9-1 1.7-2.2.7-.6 1.4-1.4 2-2.2 0-.2.6-.5.8-.6.1 0 .3-.2.4-.5 0-.1.1-.3.2-.3l.2-.2c.5-.3.9-.9 1.3-1.3h.2v-.2h.3c.1 0 0-.1.1-.3.4.2.3-.3.7-.2-.4 1-.7 2-1.2 3.1-.4 1-.9 2-1.2 2.9-.2.4-.4 1-.4 1.4-.1.5.2.7.2 1.2 0 0 .3.1.3.3.3.3.8.9 1 1 .2 0 .5-.3.8-.1.2 0 .4 0 .4-.3 1.6-.9 2.6-2.8 3.8-4.2 0 .5-.2.9-.3 1.4v1.3c0 .8 0 1.4.2 2.1 0 .1.2.3.2.4v.3s.3.2.3.3c-.1.5 0 .6.5 1 .4.7.8 1 1.5 1.2.3.1.6.4.8.4.1.1.3 0 .5 0 .4.2.8.3 1.1.2.1 0 .1 0 .1-.1.2-.2.5-.2.7-.2 0-.2-.1 0-.1-.3 0 0 .4 0 .6-.2.1-.1.1-.3.1-.4l.1-.1c.1-.1.4-.3.4-.3.2-.2 0-.6-.1-.7-.1-.3-.3.1-.5-.2zm39.1.4c.1-.1.3-.1.2-.2 0 .1-.3.2-.2.2zm.7-21.1s.2 0 .1-.2c0 .1-.3.1-.1.2zm-6.4 23.5h.2c-.1-.1-.1-.1-.2 0zm6.1-2.6s.3-.2.3-.3c-.2.1-.3.1-.3.3zm-2.9 1.6c.2 0 .3-.2.4-.2-.2-.1-.3.1-.4.2zm2.1-1.1c.1 0 .2-.2.1-.2 0 .1-.1 0-.1.2zm2.9-24.7v-.1.1zm.6 22.1s.2-.1.2-.3c-.1.1-.4.2-.2.3zm-.6.3c.2.1.3 0 .2 0h-.2zm.5-.2c-.2 0-.2.1-.3.1.2.1.2 0 .3-.1zM333.1 9c0 .1 0 .1 0 0 0 .1 0 0 0 0zm-8.9 29.8c-.4.4-1 .1-1 .6 0-.2.3-.2.6-.3.1 0 .2-.1.3-.1.1 0 .2 0 .2-.1s-.2 0-.1-.1zm-.6-.3s-.1 0-.1.3c.1 0 .2-.2.1-.3zM333.1 9c0-.1 0-.1-.1-.1l.1.1zm-8.8 30.3c.3 0 .4-.1.5-.3-.1 0-.4 0-.5.3zm-9.7-8.2s.1-.3 0-.3c-.1.2-.1.3 0 .3zm8.3 7.8h-.5c-.1 0-.2.2-.4.3h-.2s-.1.2-.2.2h-.3c-.4.2-.9.5-1.4.5h-.1c-.3 0-.6.1-.9.3.5.1.9-.1 1-.2.3 0 .4 0 .6-.1.3-.1.4-.2.7-.3h.3c.1-.1.3-.3.6-.3.3-.1.6-.3.9-.5-.1-.1 0 .1-.1.1zm-7.9-9.4s-.1-.2 0 0c-.1 0-.1.1 0 0zm-.1-.2v-.6.6z"
          class="st0"
        ></path>
        <path
          d="M339 22.6c-.1-.1-.1-.3-.2-.5-.1-.3-.3-.6-.4-.8-.3-.1-.3-.4-.4-.5-.2-.1-.5-.3-.6-.4-.3-.1-.3-.5-.6-.5-.1-.3-.4-.3-.5-.5-.3-.3-.6-.3-1-.5 0-.1 0 0-.1-.2h-.4c-.5-.4-1.2-.6-1.8-.7-1.4-.3-2.7-.4-4.1-.7.5-.3.8-.9 1.2-1.1.2-.2.3-.4.6-.5.1-.1.1-.2.4-.2 0-.2.5-.7.6-.6 0-.2.2-.1.3-.3.1 0 0-.1.1-.1.1-.1.2-.3.3-.4.2-.2.3-.6.5-.7.2-.3.3-.6.3-.8-.2.2-.1.4-.4.4 0-.2.1-.1.3-.3.1-.1 0-.3.1-.4.2-.1.3-.2.5-.4-.1 0 .1-.1.1-.3.1-.1.1-.3.2-.4v-.7c0-.1-.2-.3-.1-.3-.1-.1.1-.9-.1-.5.2-.4-.1-.5-.2-.7-.1 0 0 .3-.1.3-.1-.1 0-.3-.1-.4-.2-.2-.1-.3-.2-.3 0 0-.2 0 0-.1-.2-.1-.2.1-.2-.1 0-.3-.1-.2-.3-.3v-.2h-.2c-.1 0-.1-.1-.2-.2h-.1s-.1-.1-.1-.2c-.1-.2-.3-.2-.6-.3 0 0 0-.1-.1-.1-.1-.1-.3-.2-.4-.2-.6-.3-1.6-.7-2.5-1-.5-.1-1.2-.3-1.8-.3-.2 0-.4.1-.6 0-.1 0 0-.2-.2-.2.1 0 0 .2 0 .2v-.1c-.1 0-.2.1-.2.1-1-.2-2-.1-2.8 0-.5 0-1 .2-1.5.1h-.5c-.1 0-.3.1-.6.2-.5.2-1 .2-1.5.3-.2 0-.5.2-.7.2-1.3.3-2.3.6-3.4 1.1-.4.2-.9.3-1.2.6-.5.1-.7.4-1.2.5-.3.2-.4.4-.7.6 0 .1-.3.1-.3.2-.2.2-.4.2-.6.3.6.6 1.1 1.1 2.1 1.3.1 0 .4.1.6.2.4 0 .9-.3 1.3-.5.1 0 .3 0 .4-.1.2.1.3 0 .3-.1.6-.2 1.3-.3 1.8-.5.3 0 .5-.3.9-.2-.7 1.2-1.4 2.4-2 3.8-1 2.5-2.2 5.2-2.9 8.4h-.4c0 .3-.6.3-.8.5l-.3.3c-.3.6-.2.4.2.8.1.2.1.4.1.5.2.3.5.4.6.7 0 .1 0 .3-.1.5-.1.6-.1 1.4-.1 2.1v2.3c0 .3.2.6.2.8v.1c-.2.3.1.5.1.7.2.7.6 2.3 1.5 2.5.1.1.3 0 .6.1 0-.3.3-.3.5-.3.4-.2.3-.6.3-.9-.1 0-.3-.1-.3-.2 0 0-.1.2-.3.2-.3-.3-.4-.8-.4-1.4 0-.1-.1-.3 0-.4h-.2s.1-.1 0-.1c0-.2-.1-.5 0-.5.3 0 0 .4.2.5.3-.2.1-.5.1-.7 0-.1-.1-.3 0-.4s.3-.3.3-.5c.1-.2 0-.5.1-.7.1-.3.1-.8.2-1.2.1-.3.2-.4 0-.6.3 0 .3-.2.5-.3 0 .2-.1.3-.1.3l.1.1c0-.3.2-.6.2-.9s0-.3.2-.5c.2-.3.3-.6.4-1 .5-.1 1.1-.2 1.5-.3.2 0 .2-.2.5-.3.1 0 .3 0 .5-.2.8-.3 1.7-.8 2.4-1.1.4-.1.6-.4 1.1-.6 0 0 .1-.2.2-.2h.2c.2 0 0-.2.2-.1 0 0 .4 0 .4-.2 0 0-.3.1-.3 0 .3-.1.7-.4 1-.5h.2s.1 0 .1-.1c.4 0 .6-.1.8-.1.1-.1.4 0 .5 0 .3-.1.8-.2 1.2-.3h2.1c.1 0 .2 0 .3-.1.1.1.3.1.4.1.2.1.3 0 .5 0 0 0 .3 0 .4.1.6 0 1.1.1 1.6.2 1.7.3 3.3 1.2 3.2 2.7v.4c0 .5-.2 1-.3 1.5-.2.6-.4 1.3-.6 1.8 0 .1-.1.1-.2.2v.2c-.1.3-.4.5-.6.6h-.1c-.1.1-.1.2-.1.2-.1.2-.4.3-.3.6-.1 0-.1.1-.2.1-.2.4-.5.5-.8.7-.2.1-.4.3-.6.4-.4.3-.9.7-1.3.9.1.2.3 0 .4.1 0 .3-.3.4-.5.4 0 .1-.2.1-.3.1-.2.1-.3.3-.6.4-.2.1-.4.3-.6.4-.1 0-.3.1-.4.1-.3.2-.5.4-.8.3 0 .2-.3.2-.4.4-.2.1-.4.4-.6.5-.1 0 0 .2-.2.2-.1-.1-.2-.1-.3-.2.2.2-.1.1-.2.2-.2 0-.5.3-.9.5-.1 0-.2.1-.3.1l-.3.2c-.2.1-.3.4-.7.6-.1 0-.2 0-.3.1-.3.1-.3.5-.5.6-.1.2-.6.3-.8.3-.1.2-.5.4-.8.4-.2 0 0 .2-.1.3h-.3c.1.1 0 .1-.1.2-.3 0-.7.2-1 .3-.1 0-.1-.2-.2-.2-.6.3-1.1.5-1.8.6v.1c-.2.2-.5.2-.7.2 0 0 .1-.2-.1-.2-.6 0-1.1.3-1.7.4 0 0 0 .3-.1.2-.2.1 0-.2-.1-.2-.1.3-.6.4-.6.1 0-.3.3-.3.4-.3h-.9s0-.1-.1-.2l-.2.1c-.4.1-.3-.4-.6-.5-.1-.2-.2-.3-.3-.5 0 0 0 .1-.1.2-.3-.4.1-1 0-1.5-.3.5-.5 1.2-.9 1.5.2.3-.3.6-.4.8.2.1 0 .4 0 .6.2 0 .2.2.5.2-.1.1 0 .2.1.3.1 0 .2.3.3.3 0 .1.2 0 .3.1 0 0 0 .1.1.1.3.1.4.2.5.2v.1h.4c.1.3.6.3.7.3.3.2.8.3 1.2.3.2-.1.2-.3.4-.3v.3c.2 0 .3 0 .4-.1h.3c.1 0 .1-.1.3-.2.2 0 .4 0 .5-.3-.5 0-.8.1-1.3.3 0 0 .1-.2 0-.1h-.4c0-.1 0-.1-.2-.2-.1.2-.5.2-.5 0 .1-.2.3-.1.4-.3.1.3.4 0 .6 0s0 .2.2.2c0-.2.3-.2.5-.2.1 0 .2-.2.3-.1 0 0 0 .1.1.1 0 0 0-.1.2-.2 0 0 .1.1.3 0 .1-.1.2-.1.3-.1h.3c.1 0 .3-.2.6-.2.2 0 .4 0 .6-.1.1-.1.3-.2.6-.3h.3c.2 0 .5-.1.7-.2.3-.2.6-.2.8-.2 0 .5-.3.4-.5.5-.1.1-.2.1-.2.1-.1 0-.3.1-.3.1s-.2.2-.3.2h-.4c-.2 0-.2.1-.3.1-.3.1-.5.1-.8.3-.2 0-.6 0-.7.1-.2 0-.3 0-.2.2.3.1.5-.2.7-.2h.3c.3 0 .6-.2.9-.2h.4c.4 0 .8-.4 1-.5h.4s.1-.2.2-.2c.1-.1.3-.1.5-.2 0 .1-.1.2 0 .2 0-.2.2 0 .3 0 .1 0 .2-.2.2-.1.1 0 .3 0 .4.1.3-.1.6-.5.9-.5.1.1-.3.1 0 .2.5 0 .8-.2 1.2-.3.1-.1.5-.1.8-.2.1-.1.2-.3.5-.3h.3c.1 0 .5-.3.6-.3.4-.2.7-.4 1.2-.5-.3.3-.8.3-1 .8-.3 0-.4.3-.6.3-.2.3-.6.3-.9.5.9-.2 1.6-.7 2.3-1.1 1-.4 2-1 2.8-1.5s1.5-.9 2.1-1.7c.2-.1.3-.1.5-.3.3-.3.7-.9 1-.6.1-.2.2-.2.3-.2.3-.1.3-.4.4-.5.1 0 .1 0 .3-.1.1-.2.2-.4.4-.4.1-.2.3-.2.3-.4.2-.1.4-.3.6-.4.2-.2.3-.4.6-.7.2-.2.5-.2.5-.6.1-.1.3-.1.3-.1 0-.1.3-.3.3-.5.1-.1.1-.1.1-.3 0 0 .1-.1.2-.1.1-.2.2-.5.3-.7.1-.3.3-1 .3-1.3.2-.2.2-.5.3-.9.2-1-.1-2-.3-2.9-1-.4-1-.5-1.1-.7zm-5.9-10.5c.1 0 0 .3 0 .3 0-.1-.1-.2 0-.3zm-18.4 15.6c0 .2-.1.3-.1.5h-.1c0-.3.2-.5.3-1 .2 0-.1.4-.1.5zm5.7-5.4c-.2 0-.2.1-.5.2-.1 0-.5.2-.8.3.6-.3.9-.4 1.4-.7.2.2-.1.1-.1.2zm.2-.3c.1 0 .3-.1.4-.1-.1.1-.2.1-.4.1zm.5-.1c-.1-.2.2-.1.3-.3v-.1c.2 0 .3-.1.5-.2.1 0 .1-.2.5-.1-.5.2-.9.4-1.3.7zm6.3-6.3c-.2.3-.3.3-.5.5-.6.3-1.1.6-1.6 1-.3.3-.5.5-.7.6-.1 0-.4.1-.7.2-1.3.1-2.6.5-3.9.9-.5.1-1 .3-1.5.4 0-.5.2-.9.4-1.4.2-.4.3-1 .6-1.6.2-.5.3-1 .4-1.4.3-1.7.8-3.2 1.1-4.9 0-.3.1-.6.2-.7 0 0 .7-.1 1.1-.2.8-.1 1.7-.1 2.3-.3 0-.1.2 0 .3 0 .2 0 .3-.1.5-.2h.4c.2 0 .4-.1.6-.1h1.8c.2 0 .4.1.4 0h.3c.1 0 .8.2.9.2l.2.1c.1.1.3.2.4.3.6.5 1 1.2.7 2.3-.3 1-1.1 2-2 2.8-.4.5-1.1 1-1.7 1.5zm-13.4 23c0-.2.2 0 .1-.1v.1h-.1zm7.4-.1c0-.1.2-.1.3-.1 0 .1-.1.1-.3.1zm.6.1c-.1-.1 0-.1.1-.2.1.1-.1.1-.1.2zm.4-.3s.1-.1.2-.1c-.1 0-.1 0-.2.1zm.1.4c-.1-.1 0-.2 0 0 .1 0 0-.1 0 0zm.1-.1c0-.2.1-.2.2-.2s-.1.2-.2.2zm.1-.4c0-.2.3-.2.4-.3-.1.2-.2.3-.4.3zm.3.2c-.1 0 0 0 0 0zm0-.1c0-.1.2-.1.3-.1-.1.1-.2.1-.3.1zm2.7-1.2c-.2.2-.4.3-.5.4.1-.1.2-.3.5-.4zm-.9.4c.1 0 .2.1.2.1-.1.1-.2.1-.3.1 0 0 0-.2.1-.2zm-1.2.7c.1-.2.6-.3.9-.3-.2.1-.5.2-.9.3zm2.2-.6c-.5.1-.9.4-1.3.6-.1-.1.3-.2.3-.2.3-.1.8-.4 1-.5v.1zm.1-.1c-.1 0 .1-.1.1-.1.1 0-.1 0-.1.1zm.1-.1c.1-.1.2-.2.2-.1s-.1.1-.2.1zm2-1c-.3.2-.3.5-.6.3-.2.3-.4.5-.8.4 0-.2.3-.2.4-.4.3.2.3-.1.5-.1.1-.1.3-.2.5-.2.6-.3 1.1-.8 1.5-1h.1c-.1.2-.3.3-.4.3-.1.1-.1 0-.2 0v.2c-.1.1-.3.1-.4.2 0 0 0 .1-.1.2-.1 0-.3 0-.5.1zm.8.3s.1-.1 0 0c.2-.1.1 0 0 0zm.3-.2c0-.1.1-.2.3-.1-.1.1-.1.1-.3.1zm.1-.2c-.1 0-.3.3-.5.3-.1.1-.3.2-.4.2.4-.4.8-.7 1.4-.8 0 .4-.3.3-.5.3zm1.1-.4c-.1-.1-.4 0-.5.1 0-.2.4-.3.5-.5h.3c-.1.3-.3.1-.3.4zm.3-.4c.2-.3.3-.3.6-.5-.1.2-.3.4-.6.5zm2.1-17.3c.9.2 1.5.4 2.2.8-.7-.1-1.5-.5-2.2-.8zm2.3.8c.1 0 .3.3.5.3-.2 0-.3-.2-.5-.3zm31 19.9c-.1-.1-.4 0-.6-.2v-.1c-.3-.3-.4-1-.5-1.5-.2-1.5.2-2.9.5-4.1.1-.7.2-1.3.4-1.8 0 0 .3-.2.3-.3.3-.6.5-1.5.7-2.2.3-.3.5-.8.8-1.2-.3-.2-.6-.3-.5-.9-.2-.1-.3-.2-.4-.3-.3-.4-.3-.6-.6-.7 0 0 0-.2-.1-.2-.1-.1-.3-.2-.4-.2-.2-.2-.5-.3-.7-.5-.5-.2-1.2 0-1.5-.6.5-.9 1-1.7 1.3-2.6.5-1.4.9-2.6.8-4.6 0 0-.1-.1-.1-.3-.4-.5-1.1-.8-1.6-1.3-.1-.2-.2-.1-.2-.1-.2.2-.4.2-.5.3-.4.3-1.3 1.2-1.5 1.5-.4.4-.7.7-.8 1 0 0-.2.1-.2.2v.2s-.2-.1-.3 0v.3s-.2 0-.3.1c-.2.4-.4.9-.5 1.2-.2.5-.6 2.1-.5 2.9l.3.3c.2.7 0 .2.3.6.2.2.4.3.6.5-.3.5-.3.5-.7 1.1-.6.7-.7.8-1 1.1-.5.5-.5.5-1.1 1.2-.3.4-1.1.9-1.8 1.5-.1 0-.1.1-.2.2-1.5 1-3.7 2.1-5.8 2.6-.9.2-2.2.4-3.1.4-.2-.1-.8-.3-.9-.3-1.5-.2-1.2-1.9-.9-2.3.4 0 .6-.3.9-.5 0-.1.3 0 .4-.1.4-.2.7-.6.9-.7.1-.1.4-.2.5-.3 0 0 1.1-.6 1.2-.8.5-.4 1.2-.7 1.6-1.1 0-.2.5-.4.5-.6.3-.4.7-.6 1.1-1.1.1-.4.5-.6.3-1.4 0-.1-.2-.2-.3-.3-.1-.5-1.4-1.2-2.1-1.5-.2 0-.3.2-.3 0-.2 0-.2-.4-.5-.4-.8-.2-1.8-.4-2.7.3-.4.3-.6.5-1.1.6-.4.4-.8.6-1 .9-.6.7-1.3 1.3-1.5 1.8-.2.2-.3.4-.3.6-.1.1-.3.3-.5.4 0 .2 0 .4-.1.7-.2.5-1.2 2.3-.5 2.9-.1.2-.2.2-.3.2.2.3-.3.7-.1 1.2 0 .1.1.4.3.5h.4c.5.3.8 1.5 1.4 1.7.1 0 1.4.6 1.5.6.5.2 1 .1 1.5.3.2 0 .3 0 .5.1.5.1 1 .1 1.3 0 .7 0 1.4-.2 2-.4.3 0 .7 0 1-.2.5-.1.9-.4 1.2-.3.3-.4.6-.3 1-.6.3-.3.9-.5 1.3-.6.6-.4.5-.6 1.1-.9.2-.1.8-.6.9-.6s.5-.6.7-.6c0-.1.5-.4.6-.5 0-.1.1-.1.2-.2.5-.3.8-.5 1.2-1 .4-.4.8-.4 1-1.1 0-.1.8-.6.9-.7.6-.8.4-.5 1-1.4.3-.2.3.3.8.3.3.3.8.3.9.7-.8 1.7-1.6 4.9-1.6 7.7 0 .9 0 1.7.3 2.4 0 .3.2.5.3.8.1.2.3 1 .5 1.2.6 1 2.2 1.6 3.8 1.4.5-.1 1.1-.4 1.5-.8-.6 0-1.1.3-1.7.2-.7.5-.4.5-.6.3zm-17.3-14.6s0-.1.3 0c0 0 .1.3 0 .6s-.6.7-.9.9c-.9.6-1.8 1.5-2.7 2 0 0-.2.1-.2-.1.9-1.2 2.1-2.7 3.5-3.4zM363 20c-.3.9-.9 1.7-1.4 2.8-.3-1.4 1-2.1 1.2-3.2.1-.1.3 0 .3-.2.1.1 0 .4-.1.6zm57.1.8c.5.6.6.8 1.2.9.2 0 .3.1.6.1.3-.5.7-1.1.7-1.8-1.3-.4-3.1-1.3-3.1.3 0 0 .2.2.6.5z"
          class="st0"
        ></path>
        <path
          d="M441.2 22c-.5-.1-.9.1-1.4 0-.3 0-.6-.2-.8-.1-.3.1-.4.4-.7.7-.2.1-.3.1-.5.2v.3c-.2.1-.5.2-.6.5-.2.1-.4.1-.5.2-1 .9-1.9 1.9-2.6 2.6 0 .1 0 .2-.1.2h-.2v.2c-.2.2-.3.2-.5.3-.1.1-.1.4-.3.3.3-1.1.3-2.4.5-3.5.3-.5.3-.9.3-1.2l-.1-.3c-.2-.3-2.2-.8-2.7-.6-.4.1-.1.6-.1 1-.2 0-.3.1-.4.2-.4 1.4-.6 2.6-1 3.8-.1.4-.2.8-.3 1.3-.2.1-.4.2-.5.3-.3.3-.7.4-.9.5 0 0 0 .3-.1.3-.5.3-.9.6-1.2.6-.3.2-.6.3-.8.4-.3.3-.6.5-1.1.7-1 .6-2.6 1.3-3.4 1.9-.9.6-1.9.8-3.1 1-.2-.9.6-1.9.8-2.6.1-.1.1-.3.1-.6.1-.3.4-.5.5-.9.1-.1.2-.4.2-.5 0-.2 0-.3.2-.5.3-.8.3-1.6.5-2.2.3-.4.6-.7.6-1.2-.7-.6-2.1-1.4-3.2-.8-.6.7-1.2 2-1.4 2.8 0 .3-.3.4-.2.5-.1.2-.2.4-.2.6h-.1l-.6.4c-.1.1-.2.1-.3.2-.7.5-.7.4-1.3.8-.1 0-.1.2-.3.2l-1 .6c-.8.5-.9.6-1.7 1.2-1.3 1.2-2.7 1.7-4 2.9l-1.5 1.4-1 .9-1 .8-.6.3c-.5-.3-.8-.8-1-1.3l-.1-.3c0-.1-.3-.2-.3-.3-.4-.8-.6-1.7-.5-2.8h-.2v-.2c-.1-.7-.2-.7-.1-1.5 0-.9.5-1.9.6-2.7.2-1.1.3-2 .5-2.9.1-.2.3-.4.4-.7l.3-1.1c.3-.6.8-1.2 1.2-1.7.3-.3.4-.8.6-1 .2-.3.2-.3.4-.5 0-.1.3-.1.4-.3 0-.1 0-.3.1-.5h.2c.6-.6 1.3-1.2 1.6-1.8l.2-.1c.4-.4.6-.8.9-1.2 1.7-2.1 3.8-4.3 4.8-6.9.2-.5.3-1.5.4-1.6.1-.2.1-.6.2-.9s.3-.6.4-1.1c0 0-.2 0-.1-.2.1-.6.1-1.6.1-2.4-.2-.5-.9-.4-1.2-.7-.5-.2-.9-.6-1.8-.4-.3.3-.6.8-1.3.8-1.2 1.6-3 2.7-4.1 4.6-.5 0-.6.5-.8.9l-.5.6c-.1 0-.1.3-.2.4 0 .1-.2.3-.3.4-.1.2-.1.5-.3.6-.2.3-.5.6-.7.9-.2.2-.3.4-.3.5l-.7.9c-.2.2-.2.4-.3.6-.1.1-.3.2-.4.3-.6.9-.9 2-1.3 3-.4 1.2-1.1 2.3-1.5 3.4-.6 1.8-1 3.4-1.4 5.2-.1.3-.3 1.2-.4 2.1-.5.6-.2.3-.5.7-.2.1-.3.1-.4.2-.6.4-.6.4-1.4.9-.7.4-1.5.5-2 1.1 0 0-1.4.6-1.6.8-.3.2-2.6 1.5-2.9 1.6-.2.2.3-.4 0-.5-.2-.7.2-1.7.1-2.3 0-.6.1-.6.2-1.2 0-.4.2-.8.2-1.3 0-.2-.2-.4-.1-.6-.9-.6-1.7-1.1-2.9-1.4-.3-.8-.9-1.5-1.4-1.8-.3 0-.4-.2-.7-.5-1-.5-2.2-.7-3.5-1-.3 0-.3.3-.4.3 0 0-.3 0-.4.1-.3.1-.4.4-.8.7-.1 0-.3 0-.5.1-.6.3-1.2.6-1.7 1-.6.3-1.1.7-1.5 1-.3.2-.8.7-1.1.9 0 0-.3.1-.3.3-.1-.1 0 0 0 .1h-.2c-.4.5-.6.6-.8.9l-.4.4c-1.1.6-3 2.3-3.3 3.4-.1.5.1 1.3.2 1.4.3.4.5.8.7 1.1.1.2.3.5.3.6.7.7 1.4.7 2.3.6.1-.1 1.1-.4 1.2-.5.1 0 .1 0 .3-.1 0-.2.3-.3.5-.3.2-.1.3-.1.5-.2.1-.1.3-.4.6-.5 0 0 .1.1.2 0s.3-.3.5-.3c.8-.5 1.8-1 2.7-1.5 1.8-1 3.8-2.2 5.3-2.9.3.4 1.1.5 1.4 1-.4 2.1-.6 2.6-1 5.1-1.8 2-3.8 4.6-4.6 7.6-.3.6-.7 1.1-.9 1.5-.1.1-.1.4-.3.6-.1.3-.4.7-.4 1 0 .1-.2.2-.2.3-.2.3-.2.4-.3.7-.4 1.3-1 2.6-1.5 4.1-.3 1-.4 2-.6 3.2-.1.6-.3 1.1-.4 1.5 0 .3.1.3.1.5.2.7 0 1.3-.1 1.7.9 0 2 .4 2.9.8.4.1.2-.3.4-.3.1-.1.5.1.6 0 .2 0 .6-.4 1-.7.1-.1.2 0 .3 0 .4-.1.8-.6.9-.6.2-.3.3-.5.3-.7.2-.3.4-.4.4-.6.2-.1.3-.3.4-.7 0-.1.1-.2.1-.2.1-.2.1-.3.3-.4 0-.1.1-.2.2-.3.1-.2.1-.2.1-.3.4-.8.8-1.5 1.1-2.3.3-1 .8-2 1.2-3.1.2-.4.3-.9.4-1.3.3-.6.3-1.2.6-1.7.3-.8.5-1.6.7-2.3.3-.7.9-4.3 1.3-5 .5-.8-.6 1 1-1.6.1-.3.3-.6.4-.7.4-.3 1-.9 1-.9.1-.2.8-.8.9-.9.4-.3.6-.5 1.2-.8.8-.6 1.2-.8 1.2-.9.4-.4 1-.7 1.5-1.2.3-.3.3-.3.9-.6.3-.2.5-.4.8-.6.2 1.5.3 3 .6 4.2.2.4.3.9.5 1.2 0 .1.2.3.4.5 0 .2.1.3.3.6.4.7.9 2 1.5 2.3l.1.2c.3.3.9.4 1.2.5 0 0 .1.1.2.1.6.3 1.7.4 2.7.4 1.9-.2 3.7-1.4 5.1-2.8.3-.3.6-.7.9-1 .6-.8 1.1-1.1 1.5-1.8l.2-.1v-.1c0-.1.1-.1.2-.2 0 0-.1-.2 0-.2 0-.1.3-.2.3-.5.4-.3.6-.3.9-.7.6-.4.6-.4 1.1-.9.1-.2.7-.6.8-.7.5-.5.4-.2.9-.8.1 0 .2-.1.2-.1-.1.5-.2 1.1-.2 1.5 0 1 .3 2 .8 2.5.4.4 1.1.7 1.9 1s1.4.5 2 .5 1.1-.1 1.8-.3c.4-.2.4-.3.6-.3.4-.1.7-.2.9-.2 0 0 .3-.3.4-.5.2-.1.3-.2.5-.2.7-.4 1.2-.7 1.6-1 .6-.4 1-.6 1.5-1s1-.7 1.4-1.1c0 .3-.1.7-.1 1 0 .8.2 1.5.6 2 .6.1 1.2.1 1.5.4-.3-.6.6-.3.6-.6.1-.3.6-.4.8-.6.1-.2.3-.5.5-.8.1-.3.3-.4.4-.5.1-.2.3-.5.4-.8.4-.3.6-.8 1-1.2.4-.6.7-1.1 1.2-1.6 0-.2.2-.2.3-.3.2-.3.2-.5.3-.6.2-.3.5-.4.6-.8.1.8-.4 1.6-.6 2.5-.4 1.5-.5 3.1-.4 4.7 0 .4 0 .8.1 1.1.2.7.7 1.2.6 1.7.3.3.8 1 1.5 1.4.6.3 1.6.7 2.3.6.1-.1.1-.2.3-.3h.4c.3-.2.3-.6.3-.9-.9.3-1.7-.6-1.9-1-.3-.6-.2-1.2 0-1.7v-.8c.2-.9.5-1.6.8-2.5.1-.4.3-.8.4-1.2.3-.9.4-1.8.6-2.6.1-.3.3-.8.5-1.1.1-.6.2-1.2.2-1.9s0-1.4-.1-2c-.9-.6-.9-.9-1.1-1zm-32.9-11.3c.3-.6.6-1.2 1.1-1.8.2-.1.2-.3.4-.5s.5-.7.7-.9c.4-.6.9-1.5 1.7-1.8.2 0 .2.1.2.1v.3c-.9 1.5-1.5 2.9-2.3 4.6l-.3.1c-.3.6-.5 1.2-.8 1.7-.5 1-1.3 1.8-2 2.8 0 .1-.3.4-.4.5v.2c-.1.1-.3.2-.3.3-.3.3-.5.7-.9 1-.2.2-.4.5-.7.5 1.1-2.2 2.2-4.9 3.6-7.1zm-26.6 17.4c-2.7 1-5.3 2.2-8 3.2-.9.3-1.7 1-2.8 1 .3-.6.5-1.2 1.1-1.7.3-.5.7-.9 1.3-1.5.5-.4.8-1 1.2-1.4.3-.1.5-.3.6-.5.2-.1.4-.1.6-.3.1-.1.1-.3.2-.3.2 0 .5-.3.8-.3.3-.2.5-.4.8-.5l.3-.3c.2-.2.3-.1.5-.3.2 0 .3-.1.4-.2 0 0 .6-.3.9-.3.1 0 .5.3 1.1.1-.1.4.3.5.5.9 0 .1 0 .2.1.3.1.2.3.4.4.6s0 .3 0 .3c-.1.4.1.7 0 1.2zm-2.7 24c-.2.5-.3 1.2-.9 1.3 0-.6.2-1.3.4-1.7.2-.6.4-1.2.6-1.9.1-.1.4-.3.6-.5v-.5c.3-.4.8-1.1 1-1.8 0 1.8-.7 3.7-1.7 5.1zm93-23.8c-.6.2-1.7.6-2.1.9-.6.4-.6.4-1.4.9-.7.4-1.5.5-2 1.1 0 0-1.4.6-1.6.8-.3.2-2.6 1.5-2.9 1.6-.2.2.3-.4 0-.5-.2-.7.2-1.7.1-2.3 0-.6.1-.6.2-1.2 0-.4.2-.8.2-1.3 0-.2-.2-.4-.1-.6-.9-.6-1.7-1.1-2.9-1.4-.3-.8-.9-1.5-1.4-1.8-.3 0-.4-.2-.7-.5-1-.5-2.2-.7-3.5-1-.3 0-.3.3-.4.3 0 0-.3 0-.4.1-.3.1-.4.4-.8.7-.1 0-.3 0-.5.1-.6.3-1.2.6-1.7 1-.6.3-1.1.7-1.5 1-.3.2-.8.7-1.1.9 0 0-.3.1-.3.3-.1-.1 0 0 0 .1h-.2c-.4.5-.6.6-.8.9l-.4.4c-1.1.6-3 2.3-3.3 3.4-.1.5.1 1.3.2 1.4.3.4.5.8.7 1.1.1.2.3.5.3.6.7.7 1.4.7 2.3.6.1-.1 1.1-.4 1.2-.5.1 0 .1 0 .3-.1 0-.2.3-.3.5-.3.2-.1.3-.1.5-.2.1-.1.3-.4.6-.5 0 0 .1.1.2 0s.3-.3.5-.3c.8-.5 1.8-1 2.7-1.5 1.8-1 3.8-2.2 5.3-2.9.3.4 1.1.5 1.4 1-.4 2.1-.6 2.6-1 5.1-1.8 2-3.8 4.6-4.6 7.6-.3.6-.7 1.1-.9 1.5-.1.1-.1.4-.3.6-.1.3-.4.7-.4 1 0 .1-.2.2-.2.3-.2.3-.2.4-.3.7-.4 1.3-1 2.6-1.5 4.1-.3 1-.4 2-.6 3.2-.1.6-.3 1.1-.4 1.5 0 .3.1.3.1.5.2.7 0 1.3-.1 1.7.9 0 2 .4 2.9.8.4.1.2-.3.4-.3.1-.1.5.1.6 0 .2 0 .6-.4 1-.7.1-.1.2 0 .3 0 .4-.1.8-.6.9-.6.2-.3.3-.5.3-.7.2-.3.4-.4.4-.6.2-.1.3-.3.4-.7 0-.1.1-.2.1-.2.1-.2.1-.3.3-.4 0-.1.1-.2.2-.3.1-.2.1-.2.1-.3.4-.8.8-1.5 1.1-2.3.3-1 .8-2 1.2-3.1.2-.4.3-.9.4-1.3.3-.6.3-1.2.6-1.7.3-.8.5-1.6.7-2.3.3-.7.9-4.3 1.3-5 .5-.8-.6 1 1-1.6.1-.3.3-.6.4-.7.4-.3 1-.9 1-.9.1-.2.8-.8.9-.9.4-.3.6-.5 1.2-.8.8-.6 1.2-.8 1.2-.9.4-.4 1-.7 1.5-1.2.3-.3.3-.3.9-.6.4-.3.7-.5 1.1-.8.1-.7 1.2-1.1.6-2zm-15.6-.2c-2.7 1-5.3 2.2-8 3.2-.9.3-1.7 1-2.8 1 .3-.6.5-1.2 1.1-1.7.3-.5.7-.9 1.3-1.5.5-.4.8-1 1.2-1.4.3-.1.5-.3.6-.5.2-.1.4-.1.6-.3.1-.1.1-.3.2-.3.2 0 .5-.3.8-.3.3-.2.5-.4.8-.5l.3-.3c.2-.2.3-.1.5-.3.2 0 .3-.1.4-.2 0 0 .6-.3.9-.3.1 0 .5.3 1.1.1-.1.4.3.5.5.9 0 .1 0 .2.1.3.1.2.3.4.4.6s0 .3 0 .3c-.2.4.1.7 0 1.2zm-2.7 24c-.2.5-.3 1.2-.9 1.3 0-.6.2-1.3.4-1.7.2-.6.4-1.2.6-1.9.1-.1.4-.3.6-.5v-.5c.3-.4.8-1.1 1-1.8 0 1.8-.8 3.7-1.7 5.1z"
          class="st0"
        ></path>
      </svg>