<svg
        xmlns="http://www.w3.org/2000/svg"
        xml:space="preserve"
        viewBox="0 0 425 56.8"
        fill="white"
        class="max-w-full h-16 md:h-[6.26rem] -mb-4 md:-mb-6 lg:w-[49.375rem]"
        aria-hidden="true"
      >
        <path
          d="m44.7 25.5-1.2 1.4-1 1.2c-.6.2-.4 1-1.3 1.8-.5.4-1.8 2.1-2.4 2.4-.1.1-1.4.8-1.5 1l-1.1.4c-.5.3-1.2.5-1.9.5-.5 0-1-.2-1.5-.4a5 5 0 0 1-1.6-3.2l.2-1.2-.1-1.8c0-.7 0-1.4.2-2 0-.5.2-.9-.1-1-.2-.2-.9.3-1.1.6l-.6.6-1 .6c-.4.2-.6.6-.9.8l-.6.4-1.8 1.2c-.4.4-1 .8-1.3.9l-.9-.2-.5.2c-.2 0-.4-.3-.6-.2l-.2-.1-.3-.2-.2-.4-.4-.1-1.1-.6c.1-.1.8 0 1-.3 0-.2-.4-.6-.4-.9l-.1-1c-.1-1.1 0-2.6.3-4 .3-1.8 1.7-5.8 2.2-7.2-.4-.1-1.5.1-1.9.1l-3.8.2-2.1.1c-.2.2-1.4 3.6-1.5 3.8a102.9 102.9 0 0 0-1.9 8.9l-.1 3.3c.1.8.1 1.7.4 2.3 0 .1.3.2.2.4-.2-.2-.3.1-.4.1h-1c-.5-.1-1.1-.7-1.4-1.1A8.1 8.1 0 0 1 8 28.2c-.1-.9.1-1.7.2-2.7.1-1.3.2-2.6.6-3.9a163 163 0 0 1 2.2-6.5c-1.5-.2-.1 0-1.7 0-.4 0-.9-.2-1.2-.1h-1l-1.7-.1-.5.2H3.6l-1.2.2H1.1L.4 15l-.3-.1-.1-.2c.1-.2.4-.1.5-.3.2 0 .4-.3.6-.5 1.4-1.2 3.2-1.6 5.6-1.4 2.2.2 1.7.3 4.1.6.4 0 .8.2 1.1.1l.6-1.3c1.2-2.7 1.7-2.4 3-4.9.3-.4.6-.6.4-1.2.4-.3.7-.3 1-.2l.3.5.4.4c.1.2-.1.5-.1.8l-.2 1.2c-.3.2-.3.2-.4.7l-.4 1.1c-.3.7-.2 1-.6 1.5l-.3.8-.2.8 2.6.1 2.6-.1 2.6-.3.6-.3c.2-.1.4-.7.6-1.1.3-.5.4-.4.5-.8l.3-.7c.3-.3.4-.8.7-1l.7-.7c.1-.2.2-.7.6-.6-.1-.4.4-1 .7-1.2l.2-.5.4-.4.2-.4.9-1.1.2-.5.2-.1.2-.1.1-.3.3-.2.2-.4.8-.4.5-.7h.4c.5-.1.8-.5 1.2-.7-.4-.2-.6.2-1 .2.2-.4.7-.4.8-.8.2.2.6.2.8-.1.2 0 .3 0 .4-.3a9 9 0 0 1 2.8.4c.4 0 .8.2 1.2.4l2.7 1.1 1 .9c.5.7.8 1.4.6 2.4l-.1.9-.4.5a3 3 0 0 0-.4.8c-.6.8-1.2 1.2-1.8 1.8-1 .6-1.9 1.2-3 1.6-1.9.7-3.9 1.8-5.9 2.4l-.4.2-.3.1-.9.2-.6.3c-.4.2-1.1.2-1.4.5-.1 0-.6 1.2-.6 1.5l-.3.8-1.4 3.9-.2.7-.4 2.2c.3 0 .6-.3.9-.5 1.4-.9 2.8-1.7 4.4-2.2.7-.2 1.6-.3 2.2-.2.6.2 1.1.4 1.4.9l.5.5.8.3.5.4.2 1-.4.7c-.4.7-.4 1.6-.6 2.4-.2.8-.8 1.4-1 2v.5c-.2 1.2-.9 2.4-.7 3.8.7.2 1.2-.1 1.8-.4.6-.2 1-.6 1.5-.9.9-.6 3.3-3.4 4.2-4.3l2.8-2.7c.3-.2.7-.6 1.1-.6.4.1.2 1.1.2 1.3zm-16-13.1c.3.2.5-.2.8-.1.2-.2.6-.2.8-.3l1.4-.4.5-.2c.7-.2 1.4-.4 2-.8 1.2-.3 2.3-.8 3.3-1.3 1.4-.8 2.9-1.8 3.5-3.2.3-.8 0-1.6-.2-2.2l-.2-.1c0-.4.1-.3-.2-.7-.2-.4-.4-.5-.8-.6l-.1-.1c-.4-.2-1.1-.2-1.4 0a2 2 0 0 0-.6.4l-.5.1c-.4.1-.5.3-.8.6-.1.1-.4 0-.6.2-.7.4-1 1.1-1.6 1.5v.5c-.6 0-.8.2-1 .7l-1.3 1.4-.3.3-.1.3-.5.6-.5.8-.2.4-1 1.5c-.1.1-.4.3-.4.7z"
          class="st0"
        ></path>
        <path
          d="m58.5 26-.6.9-.5.4c-.2 0-.6.5-.6.6l-.8.6c-.6.2-.5.5-1 .8-.4.1-.9.3-1.2.6-.4.2-.7.1-1 .5l-1.2.3a3 3 0 0 1-1 .2c-.5.2-1.2.4-1.8.4h-1.2l-.4-.1-1.4-.3-1.4-.6c-.6-.2-.8-1.3-1.3-1.6h-.4c-.2-.1-.2-.4-.3-.5-.1-.5.3-.9.1-1.2.1 0 .2 0 .3-.2-.6-.5.3-2.2.5-2.7l.1-.7.4-.4.3-.6c.2-.5.8-1.1 1.4-1.7l.9-.9 1-.6c.8-.6 1.8-.4 2.5-.3.2 0 .3.4.4.4h.3c.6.2 1.8.9 2 1.4l.2.3c.2.8-.2 1-.3 1.4l-1 1-.5.5c-.4.4-1 .6-1.5 1l-1.1.7a1 1 0 0 1-.5.2c-.2.1-.4.5-.8.6l-.4.1c-.3.1-.5.5-.9.4-.2.4-.5 2 .9 2.2l.8.2c.8 0 2-.2 2.9-.4 2-.5 4-1.5 5.5-2.4l.5-.3c.5-.2 1.8-1.2 1.9-1.9.5.3.7 1.2.2 1.7zm-9.1-3c.3-.2.8-.6.8-.9v-.5h-.3c-1.3.7-2.4 2-3.3 3.2 0 .2.2.1.2.1.9-.4 1.7-1.3 2.6-1.9zm42.2 11.9c-.2.3-.2.8-.2 1 0 .1-.4 0-.3.2-.2.1-.1-.2-.3-.2 0 .2-.2.2-.3.3-.1.2-.1.3-.4.4-.2 0-1.1-.9-1.1-1.1-.3-.4-.4-1-.4-1.5-.2-.5-.4-1-.4-1.4v-1l-.1-2.3v-2l-.1-2.2c-.9.2-1.8.4-2.8.9l-1.1.4v.1c-.3.2-.7.3-1 .6-.6.4-1.2.5-2 .8-.9.2-1.5.6-2.7.7-.5.1-1.3-.1-1.6.1-.3.2-.7 1.5-1 2l-.2.3c-.3.7-.4 1.6-1 1.6-.3.1-1.4-.2-1.7-.5-.2-.2-.4-.8 0-1l.1-.2c.3-.4.4-.9.6-1.4 0-.5.4-.8.5-1.4-1-.3-1.9-.5-2.6-1l-.8-.5-.2-.4c-.4-.2-.9-.4-1.2-.8.1-.2.5-.1.8-.1.2 0 .5-.2.8-.1 1.4-.3 2.6-.8 3.9-1.2l.7-.1c.5-.4.6-1.2.8-1.9.1-.5.5-1 .7-1.4l.7-1.6 1-2.4 1.7-3.6c.4-.5.7-.8.9-1.4.2-.4.5-.6.6-1.1l.1-.4.3-.4 1-1.4.7-.8c0-.1 0-.2.2-.2l.5-.6.8-1.1.1-.3a48.8 48.8 0 0 1 1.5-1.7c.3-.3 1-.8 1.5-.6 1.1 0 2.1.4 2.6 1.2.5.6.8 1.6.8 2.6.2.2 0 .3 0 .4l.2.4c0 .5-.2 1-.1 1.4l.1.5-.1.3.1.3.1 1.6.2.5c.1.2-.1.5-.1 1l.3 2.2V20c0 .4 0 .8.2 1.2 0 .5-.2 1-.1 1.4l.1 1.5c0 .3-.2.6-.1 1v.8c.1.6-.1 1.1-.1 1.6l.3.6-.2 1.2c-.1.9.1 1.8-.2 2.6l-.3.5c-.1.3 0 .5 0 .8l-.3.4c-.2.6-.1 1.2-.2 1.8-.2-.2-.1-.3-.2-.5zM87.2 5.6l-1 1.4-.6.6-.2.4-.1.4-.5.7a7 7 0 0 0-.8 1l-.5 1c-.3.6-.5 1.3-.9 1.8-.3.8-.8 1.4-1 2.1l-.4.9c-.1.1 0 .4-.2.3l.1.5c-.3 0-.1.8-.4 1-.2 0 0-.3-.2-.2.3.2-.2.6 0 .9-.5.5-.6 1.4-.9 2.4.2.2 0 .7 0 .9-.2 0 0 .1-.2.2-.1.2-.3.7-.2 1.1 1.3-.2 2.7-.2 4.2-.2s3.1.1 4.5.4c0-5.4 1-11.1 1.2-16.5-.1-.8.1-1.6-.2-2.1 0 0-.1-.1-.1 0-.8 0-1.3.6-1.6 1zm-7.3 15.1c-.2-.4.2-.9.2-1.2.3.2-.2.9-.2 1.2zM91 36.3c0 .3-.2 0 0 0zm23.6-8c-.9.2-1.4.8-2.2.6-.3 0-.6.3-1 .2l-2.6-.1-1.4-.5c-1 1.2-.2.4-1.8 1.9l-.7.4-.2.4h-.2v.3l-.9.8-.1.3c-.6.8-1.2 1.6-2 2.2-.6-.2-.8-.1-1.4.1-.6-.5-1.2-.5-1.9-1l-.2-.2c-.3-.3-.4-1.4-.6-2.4-.2-.9.1-2.2.2-3.3l.3-4.8-.1-2.6c.2-.5.9-1.3 1.6-1.6.8-.5 2.3-.1 3 .4.1.6.5 1.2.6 1.9.1.7-.2 1.7-.4 2.6-.4 2.4-1 5-1.3 7.3.5.2.6-.5.8-.7l.7-.8 1.2-1.8c.9-1.1 1.7-1.8 2.2-3.2l.5-.2.5-.4c.5-.2 1 .3 1.8.6.4.1-.1 1.9.1 2 .5.3 1.2.4 1.9.4s1.5-.1 2.3-.4c1-.3 2.2-.5 3.4-1.8 0 .9-.2 1.4-.8 2l-.6.8-.7.6z"
          class="st0"
        ></path>
        <path
          d="M120 23.5c-.2.6-.2 1.3-.5 2l-.2.5c0 .1 0 .3-.2.4-.1.4-.4.6-.5.9l-.1.5c-.2.7-.9 1.6-.8 2.4 1.1-.2 2-.3 2.9-.9l3.2-1.8c.4-.2.7-.3 1-.6l.7-.4 1.1-.6.1-.2c.2-.1.6-.1.9-.4l1.2-.6.8-.4c.2.4 0 1.1-.1 1.6-.1.3-.4.5-.7.9l-2.5 2-1.4 1-1.5 1-.4.2-.4.4-.8.2-.5.3a6 6 0 0 1-1.7.3c-.6 0-1.1-.1-1.8-.4a5 5 0 0 1-1.8-1c-.4-.4-.8-1.4-.7-2.3 0-.6.2-1.3.4-2 .2-.5.2-1.2.5-1.7 0-.1.2-.2.2-.5.2-.8.8-2 1.3-2.6 1-.5 2.3.2 3 .8-.1.4-.4.7-.7 1zm1.3-4.3-.5-.1c-.5 0-.6-.3-1.1-.8-.4-.2-.6-.4-.6-.6 0-1.4 1.7-.6 2.9-.2 0 .6-.4 1.2-.7 1.7z"
          class="st0"
        ></path>
        <path
          d="M137 24.5c-.8-.2-1.1-.7-1.5-1.1 0-.5 0-1.1-.4-1.5-.6 0-1 .5-1.4 1l-.6.5-.6.6-1 1.4c-.4.7-.9 1.5-.9 2.4 0 .4.1.9.4 1.3.4.2 1 .4 1.7.4.9 0 1.9-.2 2.7-.4.1.1 1.2-.2 1.2-.3.2.2.4 0 .5 0 .5-.1.4-.3.9-.5.4.2.5-.2.8-.3.2-.2.4 0 .9-.3.1 0 .5 0 .7-.3l.9-.4c.5-.3.4-.4.9-.5l1-.4 1.3-.9c.4-.2.6-.4.9-.4.2.4.2.8-.4 1.5l-.5.6-.6.4-.8.5s-.6 0-.7.2c-.1.1-.4.5-1 .4.1.4-.8.4-1 .6 0 .2-.3.2-.3.2-.4.5-1.2.4-1.6.8h-.2a3 3 0 0 1-.8.4l-1 .4c-.9.5-2.4.5-3.8.6-1.8 0-3.5-.8-4.4-1.7-.3-.6-.8-1.2-1-1.8.2-.4.2-.8.3-1.3l.2-1.2.3-.7.3-.7.5-.8.4-.7c.1 0 .2 0 .3-.2.2-.2.3-.6.7-.8l.2-.5c.2-.2.5-.2.6-.4l.2-.4.8-.4.4-.5c.1-.1.4 0 .3-.3l2.5.6c.3 0 .7.3 1.1.4l.8.2c.1 0 .3.2.3.4l.3.1.1.2c.2.3.6.2.8.4-.1 1.4-1.1 2.5-1.7 3.2z"
          class="st0"
        ></path>
        <path
          d="M148.8 23.5c-.2.6-.2 1.3-.5 2l-.2.5c0 .1 0 .3-.2.4-.1.4-.4.6-.5.9l-.1.5c-.2.7-.9 1.6-.8 2.4 1.1-.2 2-.3 2.9-.9l3.2-1.8c.4-.2.7-.3 1-.6l.7-.4 1.1-.6.1-.2c.2-.1.6-.1.9-.4l1.2-.6.8-.4c.2.4 0 1.1-.1 1.6-.1.3-.4.5-.7.9l-2.5 2-1.4 1-1.5 1-.4.2-.4.4-.8.2-.5.3a6 6 0 0 1-1.7.3c-.6 0-1.1-.1-1.8-.4a5 5 0 0 1-1.8-1c-.4-.4-.8-1.4-.7-2.3 0-.6.2-1.3.4-2 .2-.5.2-1.2.5-1.7 0-.1.2-.2.2-.5.2-.8.8-2 1.3-2.6 1-.5 2.3.2 3 .8-.1.4-.4.7-.7 1zm1.3-4.3-.5-.1c-.5 0-.6-.3-1.1-.8-.4-.2-.6-.4-.6-.6 0-1.4 1.7-.6 2.9-.2 0 .6-.4 1.2-.7 1.7z"
          class="st0"
        ></path>
        <path
          d="M161.9 23.5c-.2.6-.2 1.3-.5 2l-.2.5c0 .1 0 .3-.2.4-.1.4-.4.6-.5.9l-.1.5c-.2.7-.9 1.6-.8 2.4 1.1-.2 2-.3 2.9-.9l3.2-1.8c.4-.2.7-.3 1-.6l.7-.4 1.1-.6.1-.2c.2-.1.6-.1.9-.4l1.2-.6.8-.4c.2.4 0 1.1-.1 1.6-.1.3-.4.5-.7.9l-2.5 2-1.4 1-1.5 1-.4.2-.4.4-.8.2-.5.3a6 6 0 0 1-1.7.3c-.6 0-1.1-.1-1.8-.4a5 5 0 0 1-1.8-1c-.4-.4-.8-1.4-.7-2.3 0-.6.2-1.3.4-2 .2-.5.2-1.2.5-1.7 0-.1.2-.2.2-.5.2-.8.8-2 1.3-2.6 1-.5 2.3.2 3 .8-.1.4-.4.7-.7 1zm1.3-4.3-.5-.1c-.5 0-.6-.3-1.1-.8-.4-.2-.6-.4-.6-.6 0-1.4 1.7-.6 2.9-.2 0 .6-.4 1.2-.7 1.7zm50.3 16.1a9.9 9.9 0 0 1-1.8-3.2v-.8c0-.3-.2-.5-.3-.7l-.1-.8a36.6 36.6 0 0 1 .5-11.2l-.8 1-.8 1.2-.2.4-.3.3-.2.4-1 1.6-1.6 2.4a50 50 0 0 1-1.6 2.4l-.4.6a11 11 0 0 1-1.4 1.8l-.5.5-.4.6-.5.2-.9.6c-.3.1-.5 0-.8-.1h-.8c-.9-.4-1.4-1.5-1.9-2.2-.1-.3.3.1.3-.3-.2-1-.2-2-.2-3 0-2 .2-4 .5-6 .4-3 .7-5.9 1.4-8.7-.4.3-.6.9-.8 1.4-.3 1-.7 1.9-1.2 2.8l-.3.7-.3 1.4-.4.7-.4.7-.8 1.3-.7 1.4-.4.7c-.1.2-.1.5-.3.7l-.6.7-.3.8c-.2.2-.2.5-.3.8 0 .3-.3.5-.4.8l-.2.8c-.5 1.1-.6 2.3-1 3.5-.4 1.4-.9 3.2-1.6 4.9l-.3.8-.3.8c-.2.2-.8.2-1.2.2-.5-.1-2.3-1.1-2.4-1.6-.1-.4.3-.6.3-1s-.5-1-.5-1.5v-1l-.2-3.2v-.7l.2-3.1.2-1.4c.3-3.1.8-6.6 1.3-9.7.4-2.6 1-5.2 1.6-7.9l.2-1.3.2-1.4c0-.2-.3-.2-.4-.5.1-.8.7-1.1 1.8-.8.6.2 1.5.4 2.1.8.4.2.8 1 1 1.1.1.3-.2.6-.2 1-.1.2 0 .5 0 .8l-.2 1-.4 2.2c-.1.7-.2 1.4-.5 2.1l-.7 3-.1.5c-.1.2-.4.8-.4 1.2v1.1c0 .2-.2.2-.4.4l-.4 1.2-.4 1.4-.3.6v.6l-.6 1.8-.1 1c-.1.7-.3 1.3-.3 2.1.1 0-.4 1.6-.4 2.6l1.2-2.7c.2-.6.6-1 .8-1.4.1-.2 0-.5.2-.8l.5-1c.7-1.7 1.7-3.4 2.6-5l2.5-4.9c.9-1.2 1.6-2.5 2.4-3.8l.6-.8c.1-.2 0-.6.2-.8.2-.5.8-.8 1.3-1.3 0-.2-.4 0-.3-.2.8-.4 2-.6 3-.2.2 0 .2.3.4.3.4.4.4.2.7.7.2.4.1 1.8 0 2.6 0 .7-.3 1.3-.4 2-.2 1.6-.6 3.3-.7 5-.1 1 0 1.5-.3 2.4l-.2.8.1.6-.2.7v.6c0 .2-.3.5-.3.8l.1.4-.2.6v1.1l-.2.4c-.1.4-.5 1-.4 1.8.2.1.3-.3.4-.4 1.1-1.3 1.9-2.8 3-4.2l2.8-4.3.4-.6c.1-.2.4-.2.6-.4l.6-1.1 1.5-1.5.6-1.1v-.6l.4-.4a4 4 0 0 1 1.4-1.5l.5-.1h.9l.1.1.9.1.8.7c.2.2.2 1 .2 1.4 0 1.5-.5 3.2-1 4.6l-.1.5-.4 1.6c0 .6-.3 1.1-.4 1.6v.7l-.6 2.4v1.3l-.2 1c0 .2.1.5 0 .8l-.1.6.1 1.3a8 8 0 0 0 1.9 4.8c.5.6 1.2 1 1.8 1.6-.1.2-.2.2-.4.3-1.3 1-2.7-.6-3.5-1.4zm20.9-9.3-.6.9-.5.4c-.2 0-.6.5-.6.6l-.8.6c-.6.2-.5.5-1 .8-.4.1-.9.3-1.2.6-.4.2-.7.1-1 .5l-1.2.3a3 3 0 0 1-1 .2c-.5.2-1.2.4-1.8.4h-1.2l-.4-.1-1.4-.3-1.4-.6c-.6-.2-.8-1.3-1.3-1.6h-.4c-.2-.1-.2-.4-.3-.5-.1-.5.3-.9.1-1.2.1 0 .2 0 .3-.2-.6-.5.3-2.2.5-2.7l.1-.7.4-.4.3-.6c.2-.5.8-1.1 1.4-1.7l.9-.9 1-.6c.8-.6 1.8-.4 2.5-.3.2 0 .3.4.4.4h.3c.6.2 1.8.9 2 1.4l.2.3c.2.8-.2 1-.3 1.4l-1 1-.5.5c-.4.4-1 .6-1.5 1l-1.1.7a1 1 0 0 1-.5.2c-.2.1-.4.5-.8.6l-.4.1c-.3.1-.5.5-.9.4-.2.4-.5 2 .9 2.2l.8.2c.8 0 2-.2 2.9-.4 2-.5 4-1.5 5.5-2.4l.5-.3c.5-.2 1.8-1.2 1.9-1.9.5.3.7 1.2.2 1.7zm-9.1-3c.3-.2.8-.6.8-.9v-.5h-.3c-1.3.7-2.4 2-3.3 3.2 0 .2.2.1.2.1.9-.4 1.7-1.3 2.6-1.9z"
          class="st0"
        ></path>
        <path
          d="m243.6 21.7-.1.2h-.2v.2h-.2c-.4.4-.8 1-1.2 1.2l-.2.2-.2.3-.4.4c-.2.1-.7.4-.7.6-.6.7-1.2 1.5-1.8 2l-1.6 2c-.1.2-.6 1-.8 1.1-.2.2-.3.2-.5.7l-.6.2h-.2s0-.3-.2-.1c-.2 0-.3.1-.2.2l-.3-.2c-.5.2-.8 0-1.1-.2l-.6-.6c0-.2.2-.4.1-.5-.4-.9 2.5-8.5 2.8-9 .3-.3.2-.8.4-1.2h.3v-.1h.3l.5-.2.2-.1c.1-.1.2.1.2.1.1 0 .2-.1.2 0l.5.4c.2-.3.6 0 1 .2l.8.6-.2.8-1.2 3.5c.7-.6.3-.2.8-.9l.2-.3a12 12 0 0 1 4.8-3.5c.7-.3 1.1-.4 1.7-.3l.6.2c.4.2.5 0 .8.4.4.5 0 1.5-.1 2l-.4 1.6 1.4-1.6 1.4-1.3c.2-.2.4-.2.7-.2l.4-.2.2.1.5-.2.7.1h.3c.9.4 1.4.8 1.2 2.1l-.7 2.8-.5.9-.4 2.2-.2 1.9.2 1.6c.1.5.6 1 1.3.8.1 0 .3 0 .3-.4.2.2.4-.1.5 0 .2.1.3.5.1.7l-.4.3-.1.1-.1.4c-.2.2-.5.2-.5.2l.1.2c-.2 0-.5 0-.7.2l-.1.1c-.3.1-.6 0-1-.2h-.5l-.8-.4c-.6-.2-1-.5-1.4-1.2-.4-.3-.5-.4-.4-.9l-.3-.2v-.3l-.2-.4c-.2-.7-.2-1.2-.2-2v-1.2c.1-.4.3-.8.2-1.3-1.2 1.3-2.1 3.1-3.6 4 0 .3-.2.3-.4.3-.3-.1-.6.2-.8.1l-1-1-.3-.2c0-.4-.3-.6-.2-1.1 0-.4.2-.9.4-1.3.2-.9.7-1.8 1.1-2.8l1.1-2.9c-.3.1-.2.5-.5.3zm29.9 4.8-.4.4-.8.5-1.8.6c-.5.2-1.1.1-1.6.3-.8.2-1.2.2-2 0l-.5.5-.3.5-.2.2c-.2.4-.7.6-1.1.9l-.2.2-.3.2c-.4.4-.2.3-.9.6-.5.3-2.1.6-2.9.4-.4-.1-.8-.4-1-.6-1.1-1-2.3-2.2-2.2-4.2l.1-1.2.3-.4.1-.4.2-.4.1-.4c.1-.2.4-.4.4-.6l.2-.6c.2-.5.2-.6.6-1 .3-.2.3-.4.7-.3.3 0 .4-.2.4-.4.1-.5.4-.6.4-.6-.2-.3-.6-.2-.8-.3-.1-.2-.1-.6 0-.8 1.2 0 2.8-.2 4.1 0 .6 0 1.2.3 1.8.4.8.2 1.3.8 1.8 1.4.2.3.6.3.7.9.1.2.3 1.4.1 2-.2 1.2-.6 1.5-.9 2.5 1.4.1 1.8.1 3.1-.3 1.4-.4 1.7-.6 2.7-1.2.6-.4.3-.6.8-.9-.3.9-.4 1.6-.7 2.1zm-9.8 1.3a6 6 0 0 1-2.8-2.9l-.1.1c-.9.8-1.5 2.8-1.3 4.3.2.6.9.7 1.3.7a6 6 0 0 0 1.6-.8c.3-.3.7-.5 1.3-1.4zm.5-6.1c-.2-.3-.8-.5-1.2-.8l-1.2-.1c.4.4.2 1.1.3 1.7.6 0 .8.4.8 1 0 .2-.5 0-.6.2l.1 1.2.3.3.2.4c.4.6.8 1.1 1.4 1.3.5-.8 1.2-1.8.8-3 .4-.2 0-1-.2-1.4a3 3 0 0 0-.7-.8z"
          class="st0"
        ></path>
        <path
          d="m280.1 22.1.7.5c.1 0 .3 0 .4.2l.1.2.6.7.4.3c-.1.6.2.7.5.8l-.7 1.1-.6 2-.2.2-.4 1.7c-.2 1-.6 2.4-.4 3.8.1.5.2 1.1.4 1.4v.1c.2.2.4.1.6.2l.2.4 1.6-.2c-.4.4-1 .7-1.4.8-1.5.2-3-.4-3.6-1.3-.2-.2-.3-.9-.4-1.1l-.2-.7c-.2-.6-.2-1.4-.2-2.2 0-2.6.7-5.6 1.5-7.2-.1-.4-.6-.4-.9-.7-.4 0-.4-.5-.7-.3l-1 1.3-.9.7c-.2.6-.6.6-1 1-.5.6-.9.6-1.4 1.1-1 0-1.6-.1-1.6-.4l1.7-1.4 1-1.2 1-1 .6-1-.5-.5c-.3-.4 0 0-.2-.6l-.2-.3c-.1-.7.2-2.2.4-2.7l.4-1.1.2-.1v-.2c0-.1.2 0 .2 0v-.2l.2-.2c.1-.3.4-.6.8-1l1.4-1.4c.1-.1.3 0 .5-.2 0 0 .1-.1.2.1.5.5 1.1.7 1.5 1.2l.1.2c.1 1.8-.3 3-.8 4.3l-1.2 2.4c.2.5.9.3 1.3.5zm-2.8-1.9 1.3-2.6.2-.6c0 .2-.2.1-.3.2-.3 1-1.5 1.7-1.2 3zm13.9 2.4-.1.5c-.2.2-.2.6-.3.8l-1.7 4.2c.4.2.6-.3.8-.5 1.6-1.3 3.5-3.1 5.7-4.1a6.8 6.8 0 0 1 4.6-.3c.2 0 .2.3.3.4.4.2.9.5 1.1.8l.4 1.3.1.8.1 1.4-.1 3.6c.3-.6 1.3-1.9 1.9-2.3.4-.4 1.5-1.6 2-1.9 1.5-1.1 2.2-1.9 3-2.2.4-.2.6-.4 1.6-.1.3.1.1 1.1-.1.9-1 .4-.5 0-1.5.9l-1 .7-.6.5-.8.8-1.8 1.8-1.6 1.8-1 1.7c-.4.3-.5 1-.7 1.2l-.4 1.6-1 5-.4 1.5v.5l-.5 1c-.2.8.2.4-.2 1.2l-.2.2v.5c-.2.4-.3 1-.6 1.4l-.6 1.4-.3.5-.2.4c-.4.9-1.1 1.7-1.4 2.6a23 23 0 0 0-1 2.8l-1.4.7c-1.1-.2-2.3-.3-3-.8 0-2 .7-3.8 1.2-5.7.7-2.4.7-3 1.6-5.2l.4-.9.1-.2.2-.7.2-.3c.4-1.4.7-1.8 1.4-3.1l.1-.4.2-.1.1-.6.2-.1c0-.2 0-.4.2-.5.3-.4.6-.7.8-1.2l.5-.5c.1-.1-.1-.4 0-.4.1-.1.3 0 .4-.2l.4-.7.8-1.1c-.1-1.3.2-2.4.2-3.6 0-1.5 0-4.7-1-5-.5-.1-1.6.5-2.1.9l-1.1.8-.3.2c-.3.3-1 .8-1.2 1.2l-2 2c-.1.1-.2 0-.3.2l-1.7 1.7-.6.1c-.7.3-1.2.6-2.1.3-.5-.2-1.6-1.1-1.7-1.5-.1-.3-.1-.7-.3-1-.2-1.2-.2-2.1.3-3.3l.2-.7.1-.6 1-1.6.4-1.6c.4-.7.8-.8 1-1.7l1.4-.2c.8 0 1.6.2 2.6.5-.1.7-.5 1.1-.7 1.6zm5.3 19.9c-.3 1-.5 1.9-.9 2.7.2.5-.2 1.1-.2 1.8v.9l-.3.9c0 .3-.1.7.3.9 1.4-3.2 2.5-6.7 3.1-10.8l-.1-.1-1.2 2.2-.7 1.5zm47-34.8c.1 0 0-.3.1-.2.1.2.4.3.2.7.2-.4 0 .4.1.4-.1.1.1.2.1.3v.6c0 .1 0 .3-.2.4l-.1.2-.4.4-.1.4c-.1.2-.2.1-.2.3.3 0 .2-.2.4-.4 0 .2 0 .4-.2.7l-.5.6-.2.4-.1.1c-.1.2-.2.1-.2.3 0-.1-.5.4-.5.6l-.4.2-.6.5c-.4.2-.7.7-1.2 1l3.8.6c.5.1 1.2.3 1.7.7h.3l.1.2 1 .4.5.4c.3 0 .4.3.6.4l.6.4c.1 0 .1.4.4.4l.4.8.2.5.2.5c.2.8.5 1.8.3 2.7l-.2.8-.3 1.2-.2.7-.2.1-.1.2c0 .2-.4.3-.3.4l-.3.1c0 .4-.2.4-.4.6l-.5.6-.6.4-.3.4c-.2 0-.3.2-.4.4l-.2.1c-.1.1-.1.3-.4.4-.1 0-.2 0-.3.2-.2-.2-.6.4-.9.6l-.4.2a16 16 0 0 1-4.6 3c-.7.3-1.4.8-2.2 1 .2-.2.6-.2.8-.5.2 0 .3-.3.6-.2.2-.4.6-.4 1-.7l-1.1.5c-.1 0-.5.3-.6.2h-.2l-.4.3-.7.2c-.4.1-.7.3-1.1.3-.2 0 .1 0 0-.2-.3 0-.6.4-.9.5l-.4-.1-.2.1h-.3c-.1 0 0-.1 0-.2l-.4.2-.2.2h-.4l-1 .5h-.4l-.8.2h-.3c-.2 0-.4.3-.7.2-.1-.2 0-.2.2-.2l.7-.1.8-.2.3-.1h.4l.3-.2.3-.1.2-.1c.2-.1.4 0 .4-.5-.2 0-.5 0-.7.2l-.6.2h-.3l-.5.2-.6.1-.6.2h-.2l-.2.1c-.1.1-.2 0-.2 0l-.2.2-.1-.1c-.1-.1-.2.1-.2.1-.2 0-.4 0-.4.2-.1 0 0-.2-.2-.2-.2-.1-.5.2-.6 0-.1.2-.3.1-.4.3 0 .2.4.2.4 0 .2 0 .2 0 .2.2h.4c.1 0 0 .1 0 .1.4-.1.7-.3 1.2-.2 0 .2-.2.2-.4.2l-.3.2h-.3l-.4.1v-.3c-.2-.1-.2.2-.4.2-.4 0-.9-.1-1.1-.3-.1 0-.6.1-.6-.2-.1 0-.2.1-.4 0V36l-.5-.2-.1-.1-.2-.1-.2-.3c0-.1-.2-.2-.1-.3l-.4-.2c0-.2.2-.5 0-.6.2-.2.6-.4.4-.7.4-.3.6-1 .9-1.4.1.4-.2 1 0 1.4l.1-.2.2.5c.3 0 .2.5.6.4l.2-.1.1.2c.3 0 .5-.1.8 0-.2 0-.4.1-.4.3 0 .2.4.1.6-.1l.1.2c.1.1.1-.1.1-.2.6-.1 1-.4 1.6-.4.2 0 .1.1.1.2.2 0 .5 0 .7-.2V34l1.7-.6.2.2 1-.3c.1-.1.2-.1.1-.2.1 0 .1.1.2 0l.1-.3c.2 0 .6-.2.7-.4.2.1.7-.1.8-.2.2 0 .2-.4.5-.5l.3-.1c.3-.1.4-.4.6-.5l.3-.2.2-.1.8-.5c0-.1.3 0 .2-.2l.3.2.2-.2.6-.4c0-.2.3-.2.4-.4.3 0 .4-.1.7-.3l.4-.1.5-.4.6-.4.3-.1c.2 0 .4-.2.4-.4 0-.1-.2.1-.4-.1l1.2-.8.6-.4c.3-.2.6-.2.7-.6l.2-.1c0-.3.2-.3.3-.5l.1-.2h.1l.5-.6v-.2l.2-.2.6-1.7.3-1.4v-.4c.1-1.4-1.4-2.2-3-2.6l-1.5-.2-.4-.1h-.4l-.4-.1-.3.1h-2l-1.2.2h-.5l-.7.1-.1.1h-.2l-1 .5h.2c0 .2-.3.2-.4.2-.2-.1 0 .1-.2.1h-.2l-.2.2-1 .5-2.3 1-.5.2-.4.2c-.4.2-1 .2-1.4.3a3 3 0 0 1-.4 1l-.2.5-.2.8-.1-.1.1-.3c-.2.2-.2.3-.4.3.2.2.1.3 0 .6 0 .4 0 .8-.2 1.1l-.1.7c0 .2-.2.4-.3.5v.4c0 .2.2.5-.1.7-.2-.1 0-.4-.2-.5v.5c.1 0 0 .1 0 .1h.2c-.1.1 0 .2 0 .4 0 .5.1 1 .4 1.3l.2-.2.3.2c0 .3.1.6-.3.8-.2 0-.5-.1-.4.2l-.5-.1c-.8-.2-1.2-1.6-1.4-2.3 0-.2-.3-.4-.1-.6V27l-.2-.8v-2.1l.1-2 .1-.4-.6-.6-.1-.4c-.4-.4-.5-.2-.2-.8l.3-.3c.2-.2.7-.2.7-.5h.4c.6-3 1.8-5.5 2.7-7.8l1.8-3.6c-.4-.1-.6.2-.8.2l-1.7.4s-.1.2-.3.1l-.4.1c-.4.2-.8.4-1.2.4l-.5-.2c-.9-.2-1.4-.7-2-1.2l.5-.2.3-.2.7-.5c.4-.1.6-.4 1.1-.5l1.1-.5 3.2-1 .6-.2c.5 0 1 0 1.4-.2l.5-.2h.4c.4.1 1-.1 1.4-.1.8-.1 1.7-.2 2.6 0l.2-.1v.1s.2-.2 0-.2c.2 0 .1.2.2.2h.6c.6 0 1.2.2 1.7.3a29.2 29.2 0 0 1 2.9 1.3l.5.3.1.2h.1l.2.2h.2v.2c.2.2.3 0 .3.3 0 .2 0 0 .2.1-.2 0 0 .1 0 .1l.2.3-.1-.2c0 .2-.2.5 0 .7zM325.7 35v-.1c0 .1-.2 0-.1.1h.1zm.4-9.8.1-.4s.3-.4.1-.5c-.1.5-.3.6-.2.9-.2 0-.1 0 0 0zM326 28v-.3.3zm.4-1.7v-.5.5zm0 .2s-.1 0 0 0c0-.2 0 0 0 0zm8.3-10.9.7-.2.7-.6 1.5-.9.5-.5 1.7-1.4c.8-.8 1.5-1.6 1.8-2.6.3-1-.1-1.6-.6-2.1l-.4-.2-.2-.1-.8-.2h-2.5l-.6.1h-.4l-.5.2h-.3c-.6.2-1.4.2-2.2.3l-1 .2-.2.7-1 4.6-.4 1.3-.6 1.5c-.2.4-.4.8-.4 1.3l1.4-.4c1.3-.6 2.6-.9 3.8-1zm-1.6 20.1c-.3 0-.4.2-.5.3h-.3l-.6.2-.6.1c-.2.1-.5.3-1 .2.2-.2.5-.2.8-.2h.1c.4 0 .9-.2 1.3-.4h.3l.2-.2h.2l.4-.2h.5c.1 0 0-.2.2 0l-1 .2zM331 19.9l.4-.2c.1 0 .3 0 .2-.2l-1.4.7.8-.3zm1.1-.6-.4.1c.2.1.2.1.4-.1zm.4-.4v.1c-.1.2-.4.1-.3.3l1.2-.6c-.3-.1-.4 0-.4.1l-.5.1zm.2 16-.3.1.3-.1zm.4 0c-.1.1-.2.1-.1.2l.1-.2zm.5-.3-.2.1.2-.1zm-.1.4c0-.1-.1.1 0 0 0 .1.1.1 0 0zm.2-.2-.2.2c.2 0 .3-.1.2-.2zm.4-.4-.4.2.4-.2zm-.2.4zm.3-.1-.3.1.3-.1zm.9.6-.2.1-.3.1c-.2.1-.5 0-.5.2 0-.5.6-.2 1-.6-.1.2 0 .1 0 .2zm-.7-.2.1-.2c.1.1 0 .3-.1.2zm1-.8a2 2 0 0 0-.8.3c.3 0 .6-.1.8-.3zm-.2 1.4c.1-.2.3-.3.5-.2l-.5.2zm.1-1 1.2-.6V34l-.9.5s-.4 0-.3.2zm.4-.7-.2.2c.3 0 .6-.3 1-.6-.4.1-.4.4-.6.5l-.2-.1zm.6.8h.2c-.1 0-.1.1-.2 0zm.4-.9-.1.1.1-.1zm.3-.2-.2.1c.1.1.1.1.2-.1zm1.7-.8-.6.3c-.2 0-.2.3-.4.1-.1.2-.4.2-.4.4.4 0 .6-.2.8-.4.3.1.3-.2.6-.4h.4l.1-.2c.1 0 .3 0 .4-.2v-.2c.1 0 .1.1.2 0l.4-.3h-.1l-1.4.9zm.6.3c.2 0 .4-.3.5-.3.2 0 .5.1.5-.2-.6 0-1 .4-1.3.7l.3-.2zm0 .7.4-.2-.4.2zm.2-.7s-.2 0 0 0c0 0 .1 0 0 0zm.4-.2-.2.1.2-.1zm.4-.4c.1-.1.4-.2.5-.1 0-.2.2-.1.3-.4h-.3l-.5.5zm1.4-.9c-.2.1-.4.1-.6.4.3 0 .4-.3.6-.4zm-.4 1.2.1-.2-.1.2zm.4-.3.2-.2c.1.1-.1.1-.2.2zm.3-.2c0-.2.1-.2.2-.2l-.2.2zm.3-19.6.1-.2c.1.1-.1.1-.1.2zm.7 3.1c.7.2 1.4.6 2.1.7l-2.1-.7zm.5-5.8c-.1.1 0 .2 0 .2 0 .1.1-.2 0-.2zm.5 20.6h.2s-.1.1-.2 0zm0-21c0 .1-.1-.1 0-.1v.1zm.2 20.9.2-.1c0 .1 0 .2-.2.1zm.3-.1c-.1-.1.1-.2.2-.2l-.2.2zm.7-13.9c.2.2.3.3.5.3l-.5-.3zm22.2 9.9-.4.4-.8.5-1.8.6c-.5.2-1.1.1-1.6.3-.8.2-1.2.2-2 0l-.5.5-.3.5-.2.2c-.2.4-.7.6-1.1.9l-.2.2-.3.2c-.4.4-.2.3-.9.6-.5.3-2.1.6-2.9.4-.4-.1-.8-.4-1-.6-1.1-1-2.3-2.2-2.2-4.2l.1-1.2.3-.4.1-.4.2-.4.1-.4c.1-.2.4-.4.4-.6l.2-.6c.2-.5.2-.6.6-1 .3-.2.3-.4.7-.3.3 0 .4-.2.4-.4.1-.5.4-.6.4-.6-.2-.3-.6-.2-.8-.3-.1-.2-.1-.6 0-.8 1.2 0 2.8-.2 4.1 0 .6 0 1.2.3 1.8.4.8.2 1.3.8 1.8 1.4.2.3.6.3.7.9.1.2.3 1.4.1 2-.2 1.2-.6 1.5-.9 2.5 1.4.1 1.8.1 3.1-.3 1.4-.4 1.7-.6 2.7-1.2.6-.4.3-.6.8-.9-.3.9-.4 1.6-.7 2.1zm-9.9 1.3a6 6 0 0 1-2.8-2.9l-.1.1c-.9.8-1.5 2.8-1.3 4.3.2.6.9.7 1.3.7a6 6 0 0 0 1.6-.8c.4-.3.8-.5 1.3-1.4zm.6-6.1c-.2-.3-.8-.5-1.2-.8l-1.2-.1c.4.4.2 1.1.3 1.7.6 0 .8.4.8 1 0 .2-.5 0-.6.2l.1 1.2.3.3.2.4c.4.6.8 1.1 1.4 1.3.5-.8 1.2-1.8.8-3 .4-.2 0-1-.2-1.4a3 3 0 0 0-.7-.8z"
          class="st0"
        ></path>
        <path
          d="M385.8 25.1c0 .5-.7 1.5-1 1.8-.3.6-1.3 1.7-2 2.2l-.5.6-.6.5-.5.4-.4.1-.1.2c-1.5 1.2-3.2 1.3-4.1 1.4-3.8 0-5.4-1-5.5-4.6-.3-.3-.4.2-.6.3-.4.6-1.6 2.2-2.5 2.3-.7.1-1.7-.3-2.4-.6-.7-.4-.9-.8-1.3-1.6.2-.2 0-1 .4-1 .1-.3-.2-.3-.1-.6.8-1.3 1.4-2.7 2.4-3.7 0 0 2-1.8 2.4-1.6.5 0 .8-.5 1.2-.7.4-.2.9-.3 1.2-.6.8 0 1.2.6 1.9.8.4-.3.4-1 .9-1.4a3 3 0 0 1 3.2 1.2c.2 1.6-.9 3.1-1.6 4.7l-.4 1c-.2.7-.6 1.8-.6 2.8 0 .6.2 1.3.5 1.7 1.4.6 2.2-.1 3.3-.7.9-.6 1-.6 1.6-1.2l.2-.4.3-.2 3.7-3.3c.4-.3.7-.4.9-.2v.4zm-13.6-2.6c-1.7 1.1-2.8 2.8-3.9 4.5 1.2-.4 2.1-1.6 2.8-2.4.5-.6 1.1-1.2 1.3-1.9.1-.1.1-.2-.2-.2z"
          class="st0"
        ></path>
        <path
          d="m392.1 22.1.7.5c.1 0 .3 0 .4.2l.1.2.6.7.4.3c-.1.6.2.7.5.8l-.7 1.1-.6 2-.2.2-.4 1.7c-.2 1-.6 2.4-.4 3.8.1.5.2 1.1.4 1.4v.1c.2.2.4.1.6.2l.2.4 1.6-.2c-.4.4-1 .7-1.4.8-1.5.2-3-.4-3.6-1.3-.2-.2-.3-.9-.4-1.1l-.2-.7c-.2-.6-.2-1.4-.2-2.2 0-2.6.7-5.6 1.5-7.2-.1-.4-.6-.4-.9-.7-.4 0-.4-.5-.7-.3l-1 1.3-.9.7c-.2.6-.6.6-1 1-.5.6-.9.6-1.4 1.1-1 0-1.6-.1-1.6-.4l1.7-1.4 1-1.2 1-1 .6-1-.5-.5c-.3-.4 0 0-.2-.6l-.2-.3c-.1-.7.2-2.2.4-2.7l.4-1.1.2-.1v-.2c0-.1.2 0 .2 0v-.2l.2-.2c.1-.3.4-.6.8-1l1.4-1.4c.1-.1.3 0 .5-.2 0 0 .1-.1.2.1.5.5 1.1.7 1.5 1.2l.1.2c.1 1.8-.3 3-.8 4.3l-1.2 2.4c.2.5.8.3 1.3.5zm-2.9-1.9 1.3-2.6.2-.6c0 .2-.2.1-.3.2-.2 1-1.4 1.7-1.2 3zm18.7 13.5c-.2.4-.7-.8-.4-1-1-.8-1.1-3-1-4.6-.4 0-.9.5-1.2.8l-.2.3h-.3v.3a2 2 0 0 0-.6.4l-2 1.3c-.6.2-.8.5-1.7.8l-1.3.4c-.8 0-1.6-1-2.2-1.6-.2-1.6 0-2.8.5-3.9-.2-.4.3-.4-.1-.6l.3-.7.6-1 .7-1 .5-.5c.2-.2.8-.3.7-.8.6.1.7-.4 1.1-.6.1-.1.3 0 .4-.2.2-.2.2-.5.2-.7.2-.2.6-.2.8-.3l.2-.4 1.2-1c.2.2.6 0 .7.1.3 0 .4.2.7.3.2.2.5.1.6.3.7.5 1.2 1.2 1.8 1.5.8-.2.4-1 .6-1.5l.7-1.6.1-1.1.4-.7a35 35 0 0 1 5.9-10.5l2-2.8c.2-.4.7-1 .8-1.4.3-.5.2-1.1.9-1.5.8 0 1 .4 1.5.5 1 .3 1.5 1 1.1 2l-.5.6c-.2.2-.1.4-.1.5-.5 1.1-1.5 2.8-2.2 3.8-.8 1.2-1.3 2.6-2 3.9l-.1.4c-.5 1-.5.5-.6 1.4-.5 1.2-.5.7-.9 1.8l-.6 1.4-.4.6c0 .1 0 .2-.2.3l-.6.6c.1.4 0 .7-.3.9l-.4.5-1 1.4-.1.7-.9 1.8v.4l-.2.1-.1.7c-.4.9-.8 1.8-.9 3.1V30c.1 1.3.3 2.1.9 3.1.7.3 1.6.1 2.8-.6 1.9-1.1 3.8-2.2 5.6-3.9l1.6-1.2 1-.9c.5-.5 1.9-1.2 2.4-1.8.5-.4 1.3-1.1 1-.2 0 .1 0 .7-.3.8l-.4.6-.4.7c0 .2-.9.9-.9 1-.3.3-.9.6-1.4 1.2-.8.4-.9.4-1.4 1.2-.2.1-.7.3-.8.5-.4.2-.7.7-1 .9l-1.1.9-1 .8-1.2.5c-.2.2-.3.6-.5.6-.2.1-.5 0-.9.3-.8.2-2 .9-3 .7-.8-.1-1.3-.7-2.1-.9-.1-.8-.7-1-1-1.4-.1.7 0 .9.2.8zm-4-9.5-.5.3-.9.9-1.8 1.8c-.3.4-.6 1.3-.9 1.6-.2.1-.4.5-.3.6l-.3 1.4c1-.3 2.2-1.2 2.7-1.8.8-.7 1.7-1.4 2.2-2l1.8-2.3c.3-.3.8-.5.8-1.1-.7-.8-1.5-.4-1.9-.1l-.9.7z"
          class="st0"
        ></path>
      </svg>